<?xml version="1.0" encoding="UTF-8"?>
<svg id="Layer_1" data-name="Layer 1" xmlns="http://www.w3.org/2000/svg" viewBox="0 0 49.62 49.62">
  <defs>
    <style>
      .cls-1 {
        fill: #fff;
        opacity: .95;
      }

      .cls-2 {
        fill: none;
        stroke: #0669bb;
        stroke-miterlimit: 10;
        stroke-width: 2px;
      }

      .cls-3 {
        fill: #0669bb;
      }
    </style>
  </defs>
  <rect class="cls-1" x="0" y="0" width="49.62" height="49.62" rx="24.81" ry="24.81"/>
  <path class="cls-3" d="m34.79,34.79c-2.14,2.14-4.85,3.51-7.83,3.97-4.43.68-8.97-.8-12.13-3.97s-4.65-7.7-3.97-12.13c.46-2.98,1.83-5.69,3.97-7.83,3.18-3.18,7.73-4.66,12.17-3.96.61.1,1.03.67.94,1.28-.1.61-.67,1.03-1.28.94-3.74-.58-7.57.66-10.24,3.33-1.8,1.8-1.46,4.24-1.46,4.24l13.54,13.54s2.9.8,4.7-1c4.36-4.36,4.61-11.3.76-15.95l-8.36,8.36c-.44.44-1.15.44-1.59,0s-.44-1.15,0-1.59l9.19-9.19c.44-.44,1.15-.44,1.59,0,5.5,5.5,5.5,14.46,0,19.96Z"/>
  <path class="cls-2" d="m43.93,21.27h-1.77c-.43-2.09-1.22-4.03-2.32-5.77l1.33-1.32c.7-.7.71-1.84,0-2.54l-2.86-2.88c-.7-.7-1.84-.71-2.54,0l-1.31,1.3c-1.71-1.1-3.62-1.91-5.66-2.37v-1.97c0-.99-.8-1.8-1.8-1.8h-4.05c-.99,0-1.8.8-1.8,1.8v1.97c-1.85.41-3.59,1.11-5.17,2.06l-1.44-1.51c-.68-.72-1.82-.75-2.54-.06l-2.93,2.8c-.72.68-.75,1.82-.06,2.54l1.43,1.5c-1.11,1.64-1.94,3.48-2.45,5.46l-2.16-.04c-.99-.02-1.81.77-1.83,1.76l-.08,4.05c-.02.99.77,1.81,1.76,1.83l2.1.04c.38,2.01,1.11,3.89,2.11,5.59l-1.55,1.49c-.71.69-.73,1.83-.04,2.54l2.82,2.91c.69.71,1.83.73,2.54.04l1.46-1.41c1.65,1.13,3.51,1.99,5.5,2.5l-.03,2.04c-.01.99.78,1.81,1.77,1.82l4.05.06c.99.01,1.81-.78,1.82-1.77l.03-1.9c2.06-.39,4-1.14,5.74-2.18l1.34,1.37c.69.71,1.83.72,2.54.03l2.9-2.84c.71-.69.72-1.83.03-2.54l-1.26-1.28c1.15-1.7,2-3.62,2.5-5.68h1.85c.99.02,1.8-.78,1.81-1.77l.03-4.05c0-.99-.79-1.8-1.79-1.81Z"/>
</svg>