<?xml version="1.0" encoding="UTF-8"?>
<svg id="Layer_1" data-name="Layer 1" xmlns="http://www.w3.org/2000/svg" viewBox="0 0 36.86 36.84">
  <defs>
    <style>
      .cls-1 {
        fill: none;
        stroke: #0669bb;
        stroke-miterlimit: 10;
      }

      .cls-2 {
        fill: #0669bb;
      }
    </style>
  </defs>
  <path class="cls-2" d="m26.99,26.98c-1.84,1.84-4.16,3.01-6.72,3.41-3.8.58-7.69-.69-10.41-3.41s-3.99-6.61-3.41-10.41c.39-2.56,1.57-4.88,3.41-6.72,2.73-2.73,6.63-4,10.44-3.4.53.08.88.57.8,1.1-.08.53-.57.88-1.1.8-3.21-.5-6.49.57-8.78,2.86-1.54,1.54-1.25,3.64-1.25,3.64l11.62,11.62s2.49.69,4.03-.86c3.74-3.74,3.96-9.69.65-13.68l-7.17,7.17c-.38.38-.99.38-1.36,0s-.38-.99,0-1.36l7.88-7.88c.38-.38.99-.38,1.36,0,4.72,4.72,4.72,12.4,0,17.12Z"/>
  <path class="cls-1" d="m34.83,15.38h-1.52c-.37-1.79-1.05-3.46-1.99-4.95l1.14-1.13c.6-.6.61-1.58,0-2.18l-2.45-2.47c-.6-.6-1.58-.61-2.18,0l-1.12,1.12c-1.46-.94-3.1-1.64-4.86-2.03v-1.69c0-.85-.69-1.54-1.54-1.54h-3.48c-.85,0-1.54.69-1.54,1.54v1.69c-1.59.35-3.08.96-4.44,1.77l-1.24-1.3c-.59-.62-1.56-.64-2.18-.05l-2.52,2.4c-.62.59-.64,1.56-.05,2.18l1.22,1.28c-.95,1.41-1.67,2.99-2.1,4.68l-1.85-.04c-.85-.02-1.56.66-1.57,1.51l-.07,3.48c-.02.85.66,1.56,1.51,1.57l1.8.04c.33,1.72.95,3.34,1.81,4.79l-1.33,1.28c-.61.59-.63,1.57-.04,2.18l2.42,2.5c.59.61,1.57.63,2.18.04l1.25-1.21c1.42.97,3.01,1.7,4.72,2.14l-.02,1.75c-.01.85.67,1.55,1.52,1.56l3.48.05c.85.01,1.55-.67,1.56-1.52l.02-1.63c1.77-.33,3.43-.97,4.92-1.87l1.15,1.18c.6.61,1.57.62,2.18.02l2.48-2.43c.61-.6.62-1.57.02-2.18l-1.08-1.1c.99-1.46,1.72-3.11,2.14-4.87h1.58c.85.02,1.55-.67,1.55-1.52l.02-3.48c0-.85-.68-1.55-1.53-1.55Z"/>
</svg>