<?xml version="1.0" encoding="UTF-8"?>
<svg id="Layer_1" data-name="Layer 1" xmlns="http://www.w3.org/2000/svg" viewBox="0 0 182.77 62.71">
  <defs>
    <style>
      .cls-1 {
        stroke-linejoin: round;
      }

      .cls-1, .cls-2, .cls-3 {
        fill: none;
        stroke: #0669bb;
        stroke-width: 2px;
      }

      .cls-1, .cls-3 {
        stroke-linecap: round;
      }

      .cls-2, .cls-3 {
        stroke-miterlimit: 10;
      }

      .cls-4, .cls-5 {
        fill: #0669bb;
      }

      .cls-5 {
        font-family: CourierNewPS-BoldMT, 'Courier New';
        font-size: 8.25px;
        font-weight: 700;
      }
    </style>
  </defs>
  <path class="cls-4" d="m45.88,45.86c-3.11,3.11-7.04,5.1-11.38,5.77-6.44.99-13.03-1.17-17.63-5.77-4.6-4.6-6.76-11.19-5.77-17.63.66-4.33,2.66-8.27,5.77-11.38,4.62-4.62,11.23-6.77,17.69-5.76.89.14,1.5.97,1.36,1.86-.14.89-.97,1.5-1.86,1.36-5.43-.85-10.99.96-14.87,4.84-2.61,2.61-2.12,6.17-2.12,6.17l19.68,19.68s4.22,1.16,6.83-1.45c6.34-6.34,6.7-16.41,1.1-23.18l-12.14,12.14c-.64.64-1.67.64-2.31,0s-.64-1.67,0-2.31l13.35-13.35c.64-.64,1.67-.64,2.31,0,8,8,8,21.01,0,29Z"/>
  <path class="cls-2" d="m59.15,26.21l-2.57-.02c-.62-3.02-1.78-5.84-3.36-8.37l1.93-1.91c1.02-1.02,1.03-2.67.01-3.69l-4.15-4.18c-1.02-1.02-2.67-1.03-3.69-.01l-1.91,1.89c-2.48-1.6-5.26-2.78-8.23-3.44v-2.86c0-1.44-1.17-2.61-2.61-2.61h-5.89c-1.44,0-2.61,1.17-2.61,2.61v2.86c-2.69.6-5.22,1.62-7.52,2.99l-2.09-2.2c-1-1.04-2.65-1.08-3.69-.09l-4.26,4.06c-1.04,1-1.08,2.65-.09,3.69l2.07,2.18c-1.61,2.39-2.82,5.06-3.55,7.93l-3.14-.07c-1.44-.03-2.64,1.12-2.67,2.56l-.12,5.89c-.03,1.44,1.12,2.64,2.56,2.67l3.05.06c.56,2.91,1.61,5.65,3.07,8.12l-2.25,2.17c-1.04,1-1.07,2.66-.06,3.69l4.09,4.24c1,1.04,2.66,1.07,3.69.06l2.12-2.05c2.4,1.64,5.1,2.89,7.99,3.63l-.04,2.97c-.02,1.44,1.13,2.63,2.58,2.65l5.89.08c1.44.02,2.63-1.13,2.65-2.58l.04-2.77c3-.56,5.81-1.65,8.34-3.17l1.95,1.99c1.01,1.03,2.66,1.05,3.69.04l4.21-4.12c1.03-1.01,1.05-2.66.04-3.69l-1.83-1.86c1.67-2.48,2.91-5.27,3.63-8.26l2.68.02c1.44,0,2.62-1.15,2.63-2.59l.04-5.89c0-1.44-1.15-2.62-2.59-2.63Z"/>
  <g>
    <path class="cls-3" d="m96.65,14.56v12.89c0,3.83,3.11,6.94,6.94,6.94h0c3.83,0,6.94-3.11,6.94-6.94v-12.89"/>
    <polyline class="cls-1" points="81.12 24.47 83.97 24.47 86.77 27.08 86.77 31.61 84.65 34.39 74.74 34.39 72.9 31.8 72.9 16.78 74.74 14.56 84.65 14.56 86.28 16.16"/>
    <g>
      <polyline class="cls-3" points="120.4 14.56 127.33 14.56 134.27 14.56"/>
      <line class="cls-3" x1="127.33" y1="34.39" x2="127.33" y2="14.56"/>
      <line class="cls-3" x1="120.4" y1="34.39" x2="134.27" y2="34.39"/>
    </g>
    <polyline class="cls-1" points="144.14 14.56 158.02 14.56 144.14 34.39 158.02 34.39"/>
    <rect class="cls-3" x="167.89" y="14.56" width="13.87" height="19.83" rx="3.23" ry="3.23"/>
  </g>
  <text class="cls-5" transform="translate(72.9 48.25)"><tspan x="0" y="0">INFORMÁTICA E SERVIÇOS</tspan></text>
</svg>