<?xml version="1.0" encoding="UTF-8"?>
<svg xmlns="http://www.w3.org/2000/svg" viewBox="0 0 788.9 473.66">
  <defs>
    <style>
      .cls-1, .cls-2 {
        fill: #f0f0f0;
      }

      .cls-2 {
        stroke: #407bff;
        stroke-width: .75px;
      }

      .cls-2, .cls-3, .cls-4, .cls-5, .cls-6 {
        stroke-miterlimit: 10;
      }

      .cls-7, .cls-6 {
        fill: #fff;
      }

      .cls-8 {
        fill: #36a9e1;
      }

      .cls-9, .cls-3 {
        fill: #fafafa;
      }

      .cls-3, .cls-5 {
        stroke: #36a9e1;
      }

      .cls-10 {
        fill: #f5f5f5;
      }

      .cls-11 {
        fill: #455a64;
      }

      .cls-12 {
        fill: #27a689;
      }

      .cls-13 {
        opacity: .2;
      }

      .cls-14 {
        fill: #9a4a4d;
      }

      .cls-15 {
        fill: #e0e0e0;
      }

      .cls-16 {
        fill: #e6e6e6;
      }

      .cls-17 {
        opacity: .15;
      }

      .cls-18 {
        opacity: .3;
      }

      .cls-19 {
        fill: #3361aa;
      }

      .cls-4 {
        stroke: #adbee2;
      }

      .cls-4, .cls-5, .cls-20 {
        fill: #ebebeb;
      }

      .cls-21 {
        fill: #af8966;
      }

      .cls-22 {
        opacity: .1;
      }

      .cls-6 {
        stroke: #000;
        stroke-width: .2px;
      }

      .cls-23 {
        fill: #253889;
      }

      .cls-24 {
        fill: #646d71;
        opacity: .17;
      }

      .cls-25 {
        fill: #adbee2;
      }

      .cls-26 {
        fill: #b16668;
      }

      .cls-27 {
        fill: #ba68c8;
      }

      .cls-28 {
        fill: #665133;
      }

      .cls-29 {
        opacity: .25;
      }

      .cls-30 {
        fill: #263238;
      }
    </style>
  </defs>
  <g id="Floor">
    <ellipse id="Floor-2" data-name="Floor" class="cls-9" cx="242.03" cy="333.93" rx="242.03" ry="139.73"/>
    <g id="Plant">
      <g id="Pot">
        <g id="Pot-2" data-name="Pot">
          <path class="cls-30" d="m494.04,366.53h-60.89s6.3,26.22,6.3,26.22h0c.48,3.16,2.81,6.25,7,8.67,9.47,5.47,24.82,5.47,34.29,0,4.51-2.61,6.85-5.98,7.06-9.39l6.23-25.49Z"/>
          <path class="cls-30" d="m486.61,384.51c1.38-.8,2.58-1.66,3.65-2.55l3.43-14.01c-1.56,1.76-3.61,3.42-6.16,4.89-12.85,7.42-33.43,7.6-46.72.6l1.55-6.25-.47-.66h-8.74s6.29,26.22,6.29,26.22h0c.48,3.16,2.81,6.25,7,8.67,6.75,3.89,16.47,5,24.93,3.35-15.17,1.13-25.58-5.5-27.14-11.62-.62-2.44-1.71-7.84-1.71-7.84,12.67,6.44,31.97,6.18,44.08-.8Z"/>
          <path class="cls-11" d="m497.2,358.77c-.31,1.61-.99,3.2-2.03,4.73-1.64,2.47-4.19,4.79-7.64,6.79-13.22,7.63-34.65,7.63-47.87,0-3.45-1.99-6-4.31-7.64-6.79-1.03-1.53-1.71-3.12-2.02-4.73h-.01c-1.18-5.73,2.05-11.71,9.67-16.11,13.22-7.64,34.65-7.64,47.87,0,7.62,4.4,10.85,10.38,9.67,16.11Z"/>
          <path d="m495.17,363.5c-1.64,2.47-4.19,4.79-7.64,6.79-13.22,7.63-34.65,7.63-47.87,0-3.45-1.99-6-4.31-7.64-6.79-1.03-1.53-1.71-3.12-2.02-4.73h-.01l1.5,10.32c.69,4.15,3.78,8.2,9.3,11.38,12.6,7.27,33.01,7.27,45.61,0,5.44-3.14,8.53-7.14,9.27-11.23l.08-.53,1.45-9.94c-.31,1.61-.99,3.2-2.03,4.73Z"/>
          <path d="m483.54,344.95c-11.02-6.36-28.88-6.36-39.89,0-6.24,3.6-8.94,8.46-8.12,13.16.63,3.6,3.34,7.11,8.12,9.87,11.01,6.36,28.87,6.36,39.89,0,4.77-2.76,7.48-6.26,8.11-9.86.83-4.7-1.88-9.56-8.11-13.17Z"/>
          <path class="cls-28" d="m437.4,362.47c1.38,2,3.45,3.89,6.26,5.51,11.01,6.36,28.87,6.36,39.89,0,2.8-1.62,4.88-3.5,6.25-5.51-.08-3.81-2.63-7.6-7.67-10.51-10.24-5.91-26.83-5.91-37.06,0-5.04,2.91-7.59,6.7-7.67,10.51Z"/>
        </g>
        <g id="Plants">
          <g>
            <path class="cls-12" d="m486.06,267.24l-17.36,14.9,17.01-8.67s.46,8.7-2.37,16.52c0,0-8.33,5.42-13.12,10.08l13.08-5.76s1.25,8.72-1.88,22.21c-.82,3.53-4.49,10.36-6.78,15.45-1.03,2.31-2.22,4.59-3.6,6.81-.08.14-.16.27-.25.42-3.1-1.62-6.33-3.18-9.66-4.68-2.31-4.41-5.52-15.39-6.88-24.43-5.17-34.61,20.35-55.55,41.22-63.05,0,0-6.91,9.39-9.42,20.21Z"/>
            <path class="cls-7" d="m471.14,269.28c-3.51,3.82-5.47,8.74-6.92,13.64-1.44,4.94-2.27,10.04-2.6,15.16-.67,10.24.91,20.66,4.96,30.04h0c.11.27,0,.56-.26.67-.26.11-.55,0-.66-.26,0,0,0,0,0,0-3.98-9.63-5.38-20.18-4.54-30.47.42-5.15,1.34-10.27,2.86-15.2,1.54-4.89,3.58-9.81,7.16-13.57Z"/>
          </g>
          <g>
            <path class="cls-12" d="m409.1,284.18s0,.01.02.03c.4.62,7.01,10.82,16.28,30.22l18.79,5.48-14.45.7,6.09,12.98,14.98,4.14-11.63,2.68s2.3,14.89,12.1,22.21c5.41,4.04,7.93,4.43,10.15,3.45,2.72-1.19,4.43-5.17,6.22-11.2,1.79-6.03,1.2-18.73-3.1-31.53-1.14-3.41-2.83-6.62-4.93-9.63-12.02-17.29-37.46-28.08-50.52-29.52Z"/>
            <path class="cls-7" d="m428.38,292.96c9.37,5.59,18.01,12.73,24.37,21.75,3.21,4.47,5.76,9.44,7.44,14.7,1.61,5.28,2.39,10.8,2.2,16.28,0,.03-.03.05-.06.05-.03,0-.05-.02-.05-.05-.43-5.45-1.35-10.83-3.12-15.95-1.68-5.14-4.11-10.03-7.13-14.55-6.12-9.01-14.53-16.31-23.73-22.15-.03-.02-.03-.05-.02-.07.02-.02.05-.03.07-.02Z"/>
          </g>
          <path class="cls-12" d="m529.43,287.33h0c-1.71-.04-3.64.05-5.73.26-6.29.64-14.08,2.41-21.94,5.34-2.62.98-5.25,2.08-7.84,3.32-1.29.62-2.57,1.27-3.84,1.95-6.32,3.41-12.2,7.64-16.81,12.71-2.28,2.5-4.23,5.21-5.79,8.13-.2.38-.42.75-.61,1.14,0,0,0,0,0,0-.49,1-.93,1.98-1.34,2.96-4.85,10.96-5.26,18.56-4.95,26.99.24,6.54,2.46,14.02,3.73,15.25.17.17.37.3.57.42,1.86,1.19,4.83.5,10.37-2.6,11.11-6.21,15.47-21.95,15.47-21.95l-14.98-3.42,19.36-3.16,8.05-12.56-14.82-2.69,20.14-3.1c12.21-18.75,20.42-28.38,20.92-28.96.02-.01.03-.03.03-.03h0Z"/>
          <path class="cls-12" d="m523.7,287.59c-6.29.64-14.08,2.41-21.94,5.34-2.62.98-5.25,2.08-7.84,3.32-1.29.62-2.57,1.27-3.84,1.95-6.32,3.41-12.2,7.64-16.81,12.71-2.28,2.5-4.23,5.21-5.79,8.13-.2.38-.42.75-.61,1.14,0,0,0,0,0,0-.49,1-.93,1.98-1.34,2.96-4.85,10.96-5.26,18.56-4.95,26.99.24,6.54,2.46,14.02,3.73,15.25.17.17.37.3.57.42.36.23.77.36,1.22.45-1.37-10.14,3.62-35.86,11.17-46.43,7.86-11,26.5-26.96,52.13-32.47l-.02-.03c-1.7-.03-3.61.05-5.68.26Z"/>
          <path class="cls-13" d="m522.44,287.59c-6.29.64-14.08,2.41-21.94,5.34-2.62.98-5.25,2.08-7.84,3.32-1.29.62-2.57,1.27-3.84,1.95-6.32,3.41-12.2,7.64-16.81,12.71-2.28,2.5-4.23,5.21-5.79,8.13-.2.38-.42.75-.61,1.14,0,0,0,0,0,0-.49,1-.93,1.98-1.34,2.96-4.85,10.96-5.26,18.56-4.95,26.99.24,6.54,2.46,14.02,3.73,15.25.17.17.37.3.57.42.36.23.77.36,1.22.45-1.37-10.14,3.62-35.86,11.17-46.43,7.86-11,26.5-26.96,52.13-32.47l-.02-.03c-1.7-.03-3.61.05-5.68.26Z"/>
          <path class="cls-7" d="m466.04,366.26c-.55-7.49.06-15.04,1.46-22.43,1.49-7.36,3.72-14.65,7.44-21.27,3.8-6.62,9.25-12.03,15.06-16.82,5.92-4.68,12.4-8.65,19.32-11.58.03-.01.07,0,.08.03.01.03,0,.06-.03.08-6.59,3.57-12.88,7.65-18.58,12.44-2.88,2.36-5.64,4.87-8.16,7.6-2.55,2.7-4.95,5.57-6.82,8.75-3.75,6.41-6.1,13.61-7.69,20.89-1.55,7.3-2.33,14.81-1.95,22.29,0,.03-.02.06-.06.07-.03,0-.06-.02-.07-.06Z"/>
        </g>
      </g>
    </g>
  </g>
  <g id="Shadows">
    <path id="Shadow" class="cls-15" d="m151.1,336.84l-61.17,35.29c-1.47.85-3.85.85-5.31,0l-61.09-35.29c-1.47-.85-1.47-2.22,0-3.07l61.17-35.29c1.47-.85,3.85-.85,5.31,0l61.09,35.29c1.47.85,1.47,2.22,0,3.07Z"/>
  </g>
  <g id="Folder">
    <g id="Folder-2" data-name="Folder">
      <g>
        <path class="cls-19" d="m119.97,319.03l-1.36-.79c-.67-.39-1.29-1.32-1.39-2.08l-5.93-44.5c-.2-1.53-1.45-2.14-2.79-1.37l-30.28,17.48c-1.34.77-3.04.31-3.82-1.02l-.99-1.71c-.77-1.34-2.48-1.79-3.82-1.02l-14.07,8.12c-1.34.77-2.25,2.64-2.05,4.16l7.01,52.61c.1.76.73,1.7,1.39,2.08l1.36.79c.33.19.64.21.85.09l56.73-32.75c-.22.13-.52.11-.86-.08Z"/>
        <path class="cls-29" d="m61.89,350.99l1.36.79c.33.19.64.21.85.09l56.73-32.75c-.22.13-.52.11-.86-.08l-1.36-.79c-.33-.19-.64-.51-.89-.88l-56.72,32.75c.25.37.57.69.89.88Z"/>
      </g>
      <path class="cls-1" d="m62.22,346.25v-44.31c0-1.03.72-2.28,1.61-2.79l49.72-28.7c.89-.51,1.61-.1,1.61.93v44.31c0,1.03-.72,2.28-1.61,2.79l-49.72,28.7c-.89.51-1.61.1-1.61-.93Z"/>
      <path class="cls-19" d="m64.1,351.86c.22-.13.35-.4.35-.78v-43.84c0-1.54,1.08-3.42,2.42-4.19l51.89-29.96c1.34-.77,2.42-.15,2.42,1.4v43.84c0,.38-.13.66-.35.78l-56.73,32.75Z"/>
    </g>
  </g>
  <g id="Screen">
    <path class="cls-24" d="m778.02,221.7l-153.88-88.84c-1.19-.69-3.13-.69-4.32,0l-5.6,3.14c-1.19.69-1.19,1.81,0,2.5l153.91,88.83c1.19.69,3.13.69,4.32,0l5.58-3.13c1.19-.69,1.19-1.81,0-2.5Z"/>
    <g id="Window">
      <path class="cls-7" d="m785.97,92.58c1.52.88,2.66,2.96,2.54,4.65l-8.26,120.77-159.31-91.95c-1.52-.88-2.66-2.96-2.54-4.65L626.67.63l159.31,91.95Z"/>
      <g>
        <path class="cls-6" d="m785.97,92.58c1.52.88,2.66,2.96,2.54,4.65l-8.26,120.77-159.31-91.95c-1.52-.88-2.66-2.96-2.54-4.65L626.67.63l159.31,91.95Z"/>
        <path class="cls-2" d="m627.55,2.29l157.92,91.15c1.18.68,2.13,2.41,2.05,3.71l-8.15,119.17-157.92-91.15c-1.18-.68-2.13-2.41-2.05-3.71l8.15-119.17m-.89-1.67l-8.26,120.77c-.12,1.69,1.02,3.77,2.54,4.65l159.31,91.95,8.26-120.77c.12-1.69-1.02-3.77-2.54-4.65L626.67.63h0Z"/>
      </g>
      <g>
        <g>
          <g>
            <path class="cls-10" d="m774.55,142.19l-58.59-33.83c-.77-.45-1.33-1.47-1.27-2.34l2.54-37.25c.03-.49.26-.88.63-1.07.37-.2.85-.17,1.3.09l58.59,33.83c.77.45,1.33,1.47,1.27,2.34l-2.54,37.25c-.03.49-.26.88-.63,1.07-.16.09-.34.13-.53.13-.25,0-.51-.07-.77-.22Zm3.5-38.3c.03-.5-.34-1.17-.79-1.44l-58.59-33.83c-.18-.1-.3-.11-.36-.08-.06.03-.11.14-.12.29l-2.54,37.25c-.04.5.34,1.17.79,1.44l58.59,33.83c.18.1.31.11.36.08.06-.03.11-.14.12-.29l2.54-37.25h0Z"/>
            <path class="cls-10" d="m771.26,190.4l-141.47-81.68c-.77-.45-1.33-1.47-1.27-2.34l2.54-37.25c.03-.49.26-.88.63-1.08.38-.2.85-.17,1.3.09l141.47,81.68c.77.45,1.33,1.47,1.27,2.34l-2.54,37.25c-.03.49-.26.88-.63,1.08-.16.09-.34.13-.53.13-.25,0-.51-.07-.77-.22Zm-139.12-121.49c-.06.03-.11.14-.12.29l-2.54,37.25c-.04.5.34,1.17.79,1.44l141.47,81.68c.18.1.31.11.36.08.06-.03.11-.14.12-.29l2.54-37.25c.04-.5-.34-1.17-.79-1.44l-141.47-81.68c-.12-.07-.22-.09-.28-.09-.03,0-.06,0-.08.02Z"/>
            <g>
              <g>
                <path class="cls-15" d="m772.61,111.73l-3.61-2.08c-.55-.32-1.03-.11-1.06.46-.04.57.37,1.29.92,1.61l3.6,2.08c.55.32,1.03.11,1.06-.46.04-.57-.37-1.29-.92-1.61Z"/>
                <path class="cls-15" d="m772.48,104.61l-20.72-11.96c-.61-.35-1.15-.12-1.19.52-.04.64.42,1.45,1.03,1.8l20.72,11.96c.61.35,1.15.12,1.19-.52.04-.64-.42-1.45-1.03-1.8Z"/>
              </g>
              <path class="cls-15" d="m772.18,117.95l-3.61-2.08c-.55-.32-1.03-.11-1.06.46s.37,1.29.92,1.61l3.6,2.08c.55.32,1.03.11,1.06-.46s-.37-1.29-.92-1.61Z"/>
              <path class="cls-15" d="m771.76,124.17l-3.61-2.08c-.55-.32-1.03-.11-1.06.46s.37,1.29.92,1.61l3.6,2.08c.55.32,1.03.11,1.06-.46s-.37-1.29-.92-1.61Z"/>
              <path class="cls-15" d="m771.34,130.37l-3.61-2.08c-.55-.32-1.03-.11-1.06.46-.04.57.37,1.29.92,1.61l3.6,2.08c.55.32,1.03.11,1.06-.46s-.37-1.29-.92-1.61Z"/>
            </g>
            <g>
              <path class="cls-15" d="m764.71,128.93c.08,0,.17-.04.21-.11.07-.1.04-.24-.07-.3l-44.98-25.98c-.11-.06-.26-.03-.33.07-.07.1-.04.24.07.3l44.98,25.98s.08.03.12.03Z"/>
              <path class="cls-15" d="m765.14,122.72c.08,0,.17-.04.21-.11.07-.1.04-.24-.07-.3l-44.98-25.98c-.11-.06-.26-.03-.33.07-.07.1-.04.24.07.3l44.98,25.98s.08.03.12.03Z"/>
              <path class="cls-15" d="m765.56,116.52c.08,0,.17-.04.21-.11.07-.1.04-.24-.07-.3l-44.98-25.98c-.11-.06-.26-.03-.33.07-.07.1-.04.24.07.3l44.98,25.98s.08.03.12.03Z"/>
              <path class="cls-15" d="m765.98,110.33c.08,0,.17-.04.21-.11.07-.1.04-.24-.07-.3l-44.98-25.98c-.11-.06-.26-.03-.33.07-.07.1-.04.24.07.3l44.98,25.98s.08.03.12.03Z"/>
            </g>
            <g class="cls-18">
              <polygon class="cls-11" points="763.88 128.13 764.3 122 760.08 118.75 754.93 115.73 751.85 111.58 746.6 108.55 743.62 104.4 733.13 98.35 729.84 93.76 725.48 87.58 721 84.39 719.75 102.73 763.88 128.13"/>
            </g>
          </g>
          <g>
            <g>
              <path class="cls-11" d="m701.08,89.62c-.23,3.32,1.41,7.07,3.65,8.37s4.25-.35,4.47-3.67-1.41-7.07-3.65-8.37-4.25.35-4.47,3.67Z"/>
              <g>
                <path class="cls-7" d="m706.42,95.48c.08,0,.16-.02.24-.05.31-.13.45-.49.31-.8l-2.53-5.8c-.13-.31-.49-.45-.8-.31-.31.13-.45.49-.31.8l2.53,5.8c.1.23.32.36.56.36Z"/>
                <path class="cls-7" d="m703.6,93.85c.14,0,.27-.05.39-.14l3.1-2.55c.26-.21.3-.6.08-.86s-.6-.3-.86-.08l-3.1,2.55c-.26.21-.3.6-.08.86.12.15.29.22.47.22Z"/>
              </g>
            </g>
            <g>
              <path class="cls-15" d="m674.65,70.54l21.79,12.58c.35.2.66,0,.69-.45v-.12c.04-.45-.22-.98-.57-1.19l-21.79-12.58c-.35-.2-.66,0-.69.45v.12c-.04.45.22.98.57,1.19Z"/>
              <path class="cls-15" d="m674.34,75.1l21.79,12.58c.35.2.66,0,.69-.45v-.12c.04-.45-.22-.98-.57-1.19l-21.79-12.58c-.35-.2-.66,0-.69.45v.12c-.04.45.22.98.57,1.19Z"/>
              <path class="cls-15" d="m674.03,79.66l21.79,12.58c.35.2.66,0,.69-.45v-.12c.04-.45-.22-.98-.57-1.19l-21.79-12.58c-.35-.2-.66,0-.69.45v.12c-.04.45.22.98.57,1.19Z"/>
            </g>
            <g>
              <path class="cls-11" d="m660.11,65.97c-.23,3.32,1.41,7.07,3.65,8.37s4.25-.35,4.47-3.67-1.41-7.07-3.65-8.37c-2.24-1.3-4.25.35-4.47,3.67Z"/>
              <g>
                <path class="cls-7" d="m665.44,71.83c.08,0,.16-.02.24-.05.31-.13.45-.49.31-.8l-2.54-5.8c-.13-.31-.49-.45-.8-.31-.31.13-.45.49-.31.8l2.54,5.8c.1.23.32.37.56.37Z"/>
                <path class="cls-7" d="m662.62,70.2c.14,0,.27-.05.39-.14l3.1-2.55c.26-.21.3-.6.08-.86-.21-.26-.6-.3-.86-.08l-3.1,2.55c-.26.21-.3.6-.08.86.12.15.29.22.47.22Z"/>
              </g>
            </g>
            <g>
              <path class="cls-15" d="m633.68,46.88l21.79,12.58c.35.2.66,0,.69-.45v-.12c.04-.45-.22-.98-.57-1.19l-21.79-12.58c-.35-.2-.66,0-.69.45v.12c-.04.45.22.98.57,1.19Z"/>
              <path class="cls-15" d="m633.37,51.44l21.79,12.58c.35.2.66,0,.69-.45v-.12c.04-.45-.22-.98-.57-1.19l-21.79-12.58c-.35-.2-.66,0-.69.45v.12c-.04.45.22.98.57,1.19Z"/>
              <path class="cls-15" d="m633.06,56.01l21.79,12.58c.35.2.66,0,.69-.45v-.12c.04-.45-.22-.98-.57-1.19l-21.79-12.58c-.35-.2-.66,0-.69.45v.12c-.04.45.22.98.57,1.19Z"/>
            </g>
          </g>
          <g>
            <g>
              <g>
                <path class="cls-11" d="m652.25,100.18s-.02.07-.04.09c-.02.02-.05.02-.09,0l-.4-.23s-.07-.05-.1-.08c-.02-.03-.05-.07-.08-.11-.03-.04-.07-.08-.12-.13-.05-.05-.12-.1-.2-.15-.17-.09-.3-.11-.41-.06-.11.05-.17.16-.18.33-.01.2.03.39.12.56.09.17.22.31.39.4.07.04.13.07.19.09.06.02.12.03.17.03.05,0,.1-.02.14-.05.04-.03.07-.09.1-.16.01-.04.03-.06.05-.07.02-.01.05,0,.08,0l.35.2s.06.05.08.09c.02.04.03.08.03.13-.02.14-.05.26-.11.37-.06.1-.14.18-.24.23-.1.05-.23.06-.37.04-.15-.02-.32-.09-.52-.21-.16-.09-.3-.2-.44-.33-.14-.13-.25-.28-.35-.45-.1-.17-.17-.35-.22-.56-.05-.2-.06-.42-.05-.66.01-.21.06-.38.12-.5.07-.13.16-.22.27-.27.11-.05.24-.06.38-.04.14.02.29.08.46.18.05.03.11.07.19.12.08.05.15.12.23.21v-.74s-1.22-.7-1.22-.7c-.03-.02-.06-.05-.08-.09-.02-.04-.03-.08-.03-.13l.03-.39s.02-.07.04-.09c.03-.02.05-.02.09,0l1.63.94s.06.05.08.09c.02.04.03.08.03.12v1.96Z"/>
                <path class="cls-11" d="m647.48,96.2c.05-.16.13-.28.23-.36.1-.08.23-.12.38-.11.15,0,.33.07.54.19.21.12.39.27.53.43.14.16.25.34.33.53.08.19.14.39.17.6.03.21.04.43.03.65,0,.15-.01.31-.02.49-.01.18-.03.34-.04.48-.02.21-.06.4-.12.56-.05.16-.13.28-.23.36-.1.08-.23.12-.38.11-.15,0-.33-.07-.55-.2-.21-.12-.39-.26-.53-.42-.14-.16-.25-.33-.33-.52-.08-.19-.14-.39-.17-.59-.03-.21-.04-.42-.04-.64,0-.07,0-.15.01-.24,0-.09.01-.17.02-.26,0-.09.01-.18.02-.26s.01-.16.02-.23c.02-.21.06-.39.12-.55Zm1.61,2.06c.01-.17.02-.33.02-.47,0-.28-.03-.51-.11-.71s-.21-.35-.42-.47c-.2-.12-.35-.13-.45-.03-.09.1-.16.27-.19.53-.02.14-.03.29-.04.46-.01.17-.02.33-.02.47,0,.28.03.51.11.71.08.2.21.35.42.47.2.12.35.13.45.03.1-.1.16-.28.19-.53.02-.14.03-.29.04-.46Z"/>
                <path class="cls-11" d="m646.66,94.88c.07.09.14.18.19.27.05.1.08.19.11.29.02.1.03.19.03.28,0,.1,0,.2-.01.31,0,.11-.02.21-.03.3-.01.08-.03.16-.07.22-.03.07-.08.12-.14.15-.06.03-.13.05-.21.04-.08,0-.18-.04-.28-.1-.11-.06-.2-.13-.27-.22s-.14-.17-.19-.27c-.05-.1-.08-.19-.11-.29-.02-.1-.03-.19-.03-.28,0-.1,0-.21.01-.31,0-.11.02-.21.03-.3.01-.08.03-.16.07-.22.03-.07.08-.12.14-.15.06-.03.13-.05.21-.05.08,0,.17.04.28.1.11.06.2.14.27.22Zm-.13,3.76s0,.03.01.04c0,.01,0,.02,0,.03,0,.03-.01.05-.03.06-.02,0-.05,0-.08-.01l-.26-.15s-.07-.05-.09-.08c-.02-.03-.04-.07-.06-.11l-1.9-4.85s0-.03-.01-.04c0-.01,0-.02,0-.03,0-.03.01-.05.03-.06.02,0,.05,0,.08.01l.26.15s.07.05.09.08c.02.03.04.07.06.11l1.9,4.85Zm-.42-2.64c.03.07.08.13.17.18.08.05.14.06.18.02.03-.03.06-.09.07-.16,0-.02,0-.06.01-.1,0-.05,0-.1.01-.15,0-.05,0-.1,0-.15,0-.05,0-.08,0-.11,0-.08-.02-.15-.04-.22-.03-.07-.08-.13-.17-.18s-.14-.06-.18-.02c-.04.03-.06.09-.07.16,0,.02,0,.06-.01.1,0,.05,0,.1-.01.15,0,.05,0,.1-.01.15s0,.09,0,.11c0,.08.02.15.04.22Zm-1.47-.26c.08.09.14.18.19.27.05.1.08.19.11.29.02.1.03.19.03.28,0,.1,0,.2-.01.31,0,.11-.02.21-.03.3-.01.08-.03.16-.07.22-.03.07-.08.12-.14.15-.06.03-.13.05-.21.04-.08,0-.17-.04-.28-.1-.11-.06-.2-.13-.27-.22-.08-.08-.14-.17-.19-.27-.05-.1-.08-.19-.11-.29-.02-.1-.03-.19-.03-.28,0-.1,0-.21.01-.31,0-.11.02-.21.03-.3.01-.08.03-.16.07-.22s.08-.12.14-.15c.06-.03.13-.05.21-.05.08,0,.17.04.28.1.11.06.2.14.27.22Zm-.55,1.12c.03.07.08.13.17.18.08.05.14.06.18.02.04-.03.06-.09.07-.16,0-.02,0-.05.01-.1,0-.05,0-.1.01-.15,0-.05,0-.1,0-.15,0-.05,0-.08,0-.11,0-.08-.02-.15-.04-.22-.03-.07-.08-.13-.17-.18s-.14-.06-.18-.02c-.04.03-.06.09-.07.16,0,.02,0,.06-.01.1s0,.1-.01.15c0,.05,0,.1-.01.15s0,.09,0,.11c0,.08.02.15.04.22Z"/>
              </g>
              <g>
                <path class="cls-1" d="m654.84,98.39c-.36-1.83-1.04-3.64-1.97-5.25-.17-.29-.35-.58-.53-.86-.99-1.49-2.2-2.75-3.52-3.6l.25-3.61c1.94,1.21,3.7,3.05,5.13,5.25.18.28.36.57.53.86,1.37,2.33,2.38,4.97,2.87,7.64.06.33.11.65.16.98.18,1.28.23,2.55.15,3.79-.08,1.23-.3,2.35-.63,3.33-.08.25-.17.5-.27.73-.81,1.91-2.09,3.24-3.66,3.87-.2.08-.4.15-.6.21-1.61.44-3.47.19-5.43-.85l.25-3.61c1.34.69,2.62.87,3.73.59.21-.05.41-.12.6-.2,1.07-.45,1.94-1.37,2.51-2.67.1-.23.19-.47.28-.73.22-.69.37-1.45.43-2.29.06-.85.02-1.72-.1-2.6-.04-.33-.09-.65-.16-.98Z"/>
                <path class="cls-8" d="m637.83,88.06c.08-.25.17-.5.27-.73.86-2.05,2.23-3.47,3.91-4.13.2-.08.4-.15.6-.21,1.71-.47,3.71-.21,5.8.91l-.05.78-.25,3.61-.06.81c-1.2-.61-2.35-.77-3.35-.53-.21.05-.41.11-.6.2-.96.41-1.74,1.24-2.25,2.4-.1.23-.19.47-.27.73-.19.62-.33,1.3-.38,2.06-.05.76-.02,1.54.08,2.33.04.33.09.65.16.98.32,1.64.94,3.27,1.77,4.72.17.29.35.58.53.85.89,1.34,1.97,2.46,3.16,3.23l-.06.81-.25,3.61-.05.78c-2.08-1.29-3.96-3.26-5.48-5.6-.18-.28-.36-.57-.53-.86-1.47-2.48-2.54-5.31-3.07-8.16-.06-.33-.11-.65-.16-.98-.19-1.36-.25-2.72-.16-4.04.09-1.32.33-2.51.68-3.56Z"/>
              </g>
            </g>
            <g>
              <g>
                <path class="cls-11" d="m677.95,117.38s-.06-.05-.08-.09c-.02-.04-.03-.09-.03-.13l.05-.67-.37-.21s-.06-.05-.08-.09c-.02-.04-.03-.09-.03-.13l.03-.39s.02-.07.04-.09c.02-.02.05-.02.09,0l.37.21.15-2.22s.02-.07.04-.09c.03-.02.05-.02.09,0l.33.19c.06.03.12.12.17.24l1.18,2.89c.02.06.04.11.06.16.02.05.02.1.02.15l-.03.39s-.02.07-.04.09c-.02.02-.05.01-.09,0l-1.34-.78-.05.67s-.02.07-.04.09c-.02.02-.05.02-.09,0l-.35-.2Zm1.31-.82l-.66-1.62-.08,1.19.74.43Z"/>
                <path class="cls-11" d="m674.91,112.46c.05-.16.13-.28.23-.36.1-.08.23-.12.38-.11.15,0,.33.07.54.19.21.12.39.27.53.43.14.16.25.34.33.53.08.19.14.39.17.6.03.21.04.43.03.65,0,.14-.01.31-.02.49s-.03.34-.04.48c-.02.21-.06.4-.12.55-.05.16-.13.28-.23.36-.1.08-.23.12-.38.11-.15,0-.33-.07-.54-.2-.21-.12-.39-.26-.53-.42-.14-.16-.25-.34-.33-.52-.08-.19-.14-.39-.17-.59-.03-.21-.04-.42-.03-.64,0-.07,0-.15.01-.24,0-.09.01-.17.02-.26,0-.09.01-.18.02-.26,0-.09.01-.16.02-.23.02-.21.06-.4.12-.55Zm1.61,2.06c.01-.17.02-.33.02-.47,0-.28-.03-.51-.11-.71-.08-.2-.21-.35-.42-.47-.2-.12-.35-.13-.45-.03-.1.1-.16.27-.19.53-.02.14-.03.29-.04.46-.01.17-.02.33-.02.47,0,.28.03.51.11.71.08.2.21.35.42.47.2.12.35.13.45.03.09-.1.16-.28.19-.54.02-.14.03-.29.04-.46Z"/>
                <path class="cls-11" d="m674.09,111.14c.07.09.14.18.19.27.05.1.08.19.11.29s.03.19.03.28c0,.1,0,.2-.01.31,0,.11-.02.21-.03.3-.01.08-.03.16-.07.22-.03.07-.08.12-.14.15-.06.03-.13.05-.21.04-.08,0-.17-.04-.28-.1-.11-.06-.2-.13-.27-.22-.07-.08-.14-.17-.19-.27s-.08-.19-.11-.29c-.02-.1-.03-.19-.03-.28,0-.1,0-.2.01-.31,0-.11.02-.21.03-.3.01-.08.03-.16.07-.22.03-.07.08-.12.14-.15.06-.03.13-.05.21-.05.08,0,.18.04.28.1.11.06.2.13.27.22Zm-.13,3.76s0,.03.01.04c0,.01,0,.02,0,.03,0,.03-.01.05-.03.06-.02,0-.05,0-.08-.01l-.26-.15s-.07-.05-.09-.08c-.02-.03-.04-.07-.06-.11l-1.9-4.85s0-.03-.01-.04c0-.01,0-.02,0-.03,0-.03.01-.06.03-.06.02,0,.05,0,.08.01l.26.15s.07.05.09.08c.02.03.04.07.06.11l1.9,4.85Zm-.42-2.64c.03.07.08.13.17.18.08.05.14.06.18.02.03-.03.06-.09.07-.16,0-.02,0-.05.01-.1,0-.05,0-.1.01-.15,0-.05,0-.1,0-.15,0-.05,0-.08,0-.11,0-.08-.02-.15-.04-.22-.03-.07-.09-.13-.17-.18s-.14-.06-.18-.02-.06.09-.07.16c0,.02,0,.05-.01.1,0,.05,0,.1-.01.15,0,.05,0,.1-.01.15s0,.08,0,.11c0,.08.01.15.04.22Zm-1.47-.26c.08.09.14.18.19.27.05.1.08.19.11.29.02.1.03.19.03.28,0,.1,0,.2-.01.31,0,.11-.02.21-.03.3-.01.08-.03.16-.07.22-.03.07-.08.12-.14.15-.06.03-.13.05-.21.04-.08,0-.17-.04-.28-.1-.11-.06-.2-.13-.27-.22-.07-.08-.14-.17-.19-.27-.05-.1-.08-.19-.11-.29-.02-.1-.03-.19-.03-.28,0-.1,0-.2.01-.31,0-.11.02-.21.03-.3.01-.08.03-.16.07-.22s.08-.12.14-.15c.06-.03.13-.05.21-.05.08,0,.18.04.28.1.11.06.2.13.27.22Zm-.54,1.12c.03.07.08.13.17.18.08.05.14.06.18.02.03-.03.06-.09.07-.16,0-.02,0-.05.01-.1s0-.1.01-.15c0-.05,0-.1,0-.15,0-.05,0-.08,0-.11,0-.08-.02-.15-.04-.22-.03-.07-.09-.13-.17-.18s-.14-.06-.18-.02c-.04.03-.06.09-.07.16,0,.02,0,.06-.01.1s0,.1-.01.15c0,.05,0,.1-.01.15,0,.05,0,.08,0,.11,0,.08.01.15.04.22Z"/>
              </g>
              <g>
                <path class="cls-1" d="m671.01,120.05c.99,1.49,2.2,2.75,3.53,3.6.12.07.23.16.35.23.12.07.23.12.35.18,1.34.69,2.62.87,3.73.59.21-.05.41-.12.6-.2,1.07-.45,1.94-1.37,2.51-2.67.1-.23.19-.47.28-.73.22-.69.37-1.45.43-2.29.06-.85.02-1.72-.1-2.6-.04-.33-.09-.65-.16-.98-.36-1.83-1.04-3.64-1.97-5.25-.17-.29-.35-.58-.53-.86-.99-1.49-2.2-2.75-3.52-3.6l.25-3.61c1.94,1.21,3.7,3.05,5.13,5.25.18.28.36.57.53.86,1.37,2.33,2.38,4.97,2.88,7.64.06.33.11.65.16.98.18,1.28.23,2.55.15,3.79-.08,1.23-.3,2.35-.64,3.33-.08.25-.17.5-.27.73-.81,1.91-2.09,3.24-3.66,3.87-.2.08-.4.15-.6.21-1.61.44-3.47.19-5.43-.85-.12-.06-.23-.12-.35-.19-.12-.07-.23-.14-.35-.21-1.94-1.21-3.7-3.05-5.13-5.25l1.85-1.96Z"/>
                <path class="cls-8" d="m665.53,104.84c.08-.25.17-.5.27-.73.86-2.05,2.23-3.47,3.91-4.13.2-.08.4-.15.6-.21,1.71-.47,3.71-.21,5.8.91l-.05.78-.25,3.61-.06.81c-1.2-.61-2.35-.77-3.35-.53-.21.05-.41.11-.6.2-.96.41-1.74,1.24-2.25,2.4-.1.23-.19.47-.27.73-.19.62-.33,1.3-.38,2.06-.05.76-.02,1.54.08,2.33.04.33.09.65.16.98.32,1.64.94,3.27,1.77,4.72l-.41.44-1.85,1.96-.4.43c-1.47-2.48-2.54-5.31-3.07-8.16-.06-.33-.11-.65-.16-.98-.19-1.36-.25-2.72-.16-4.04.09-1.32.33-2.51.68-3.56Z"/>
              </g>
            </g>
            <g>
              <g>
                <path class="cls-11" d="m734.56,149.26s.04.08.07.14c.02.06.04.13.03.19l-.02.34s-.02.07-.04.09c-.03.02-.05.01-.09,0l-2.03-1.17s-.06-.05-.08-.09c-.02-.04-.03-.09-.03-.13l.03-.39s.02-.07.04-.09c.03-.02.05-.01.09,0l1.21.7-.74-1.4c-.09-.16-.17-.31-.22-.43-.05-.13-.09-.24-.12-.34-.03-.1-.04-.2-.04-.28,0-.09,0-.18,0-.27,0-.14.04-.28.09-.4.05-.12.13-.22.22-.29.09-.07.21-.11.35-.1.14,0,.3.05.48.16.15.09.29.2.41.34.13.14.23.29.32.46.09.17.16.34.21.52.05.18.07.36.07.53,0,.05-.01.08-.04.09-.03.01-.06.01-.09,0l-.34-.2s-.05-.04-.08-.08c-.02-.04-.04-.08-.05-.14-.02-.17-.07-.33-.13-.48-.07-.14-.18-.26-.34-.35-.17-.1-.29-.11-.37-.05-.08.06-.12.17-.13.32,0,.08,0,.17.02.28.02.11.07.23.15.37l1.19,2.17Z"/>
                <path class="cls-11" d="m729.87,144.18c.05-.16.13-.28.23-.36.1-.08.23-.12.38-.11.15,0,.33.07.54.19.21.12.39.27.53.43.14.16.25.34.33.53.08.19.14.39.17.6.03.21.04.43.03.65,0,.14-.01.31-.02.49-.01.18-.03.34-.04.48-.02.21-.06.4-.12.55-.05.16-.13.28-.23.36-.1.08-.23.12-.38.11-.15,0-.33-.07-.55-.2-.21-.12-.39-.26-.53-.42-.14-.16-.25-.33-.33-.52-.08-.19-.14-.39-.17-.59-.03-.21-.04-.42-.04-.64,0-.07,0-.15.01-.24s.01-.17.02-.26c0-.09.01-.18.02-.26,0-.09.01-.16.02-.23.02-.21.06-.4.12-.55Zm1.61,2.06c.01-.17.02-.33.02-.47,0-.28-.03-.51-.11-.71-.07-.2-.21-.35-.42-.47-.2-.12-.35-.13-.45-.03-.1.1-.16.27-.19.53-.02.14-.03.29-.04.46-.01.17-.02.33-.02.47,0,.28.03.51.11.71.07.2.21.35.42.47.2.12.35.13.45.03.1-.1.16-.28.19-.54.02-.14.03-.29.04-.46Z"/>
                <path class="cls-11" d="m729.05,142.85c.07.09.14.18.19.27.05.1.08.19.11.29.02.1.03.19.03.28,0,.1,0,.2-.01.31,0,.11-.02.21-.03.3-.01.08-.03.16-.07.22-.03.07-.08.12-.14.15-.06.03-.13.05-.21.04-.08,0-.18-.04-.28-.1-.11-.06-.2-.13-.27-.22s-.14-.17-.19-.27c-.05-.1-.08-.19-.11-.29-.02-.1-.03-.19-.03-.28,0-.1,0-.2.01-.31,0-.11.02-.21.03-.3.01-.08.03-.16.07-.23.03-.07.08-.12.14-.15.06-.03.13-.05.21-.05.08,0,.17.04.28.1.11.06.2.14.27.22Zm-.13,3.76s0,.03,0,.04c0,.01,0,.02,0,.03,0,.03-.01.05-.03.06-.02,0-.05,0-.08-.01l-.26-.15s-.07-.05-.09-.08c-.02-.03-.04-.07-.06-.11l-1.9-4.85s0-.03-.01-.04c0-.01,0-.02,0-.03,0-.03.01-.05.03-.06.02,0,.05,0,.08.01l.26.15s.07.05.09.08c.02.03.04.07.06.11l1.9,4.85Zm-.42-2.64c.03.07.08.13.17.18s.14.06.18.02c.03-.03.06-.09.07-.16,0-.02,0-.05.01-.1,0-.05,0-.1.01-.15,0-.05,0-.1,0-.15,0-.05,0-.09,0-.11,0-.08-.01-.15-.04-.22-.03-.07-.09-.13-.17-.18-.08-.05-.14-.06-.18-.02-.03.03-.06.09-.07.16,0,.02,0,.05-.01.1,0,.05,0,.1-.01.15,0,.05,0,.1-.01.15,0,.05,0,.08,0,.11,0,.08.02.15.04.22Zm-1.46-.26c.07.09.14.18.19.27.05.1.08.19.11.29.02.1.03.19.03.28,0,.1,0,.2-.01.31,0,.11-.02.21-.03.3-.01.08-.03.16-.07.22-.03.07-.08.12-.14.15-.06.03-.13.05-.21.04-.08,0-.17-.04-.28-.1-.11-.06-.2-.13-.27-.22-.08-.08-.14-.17-.19-.27-.05-.1-.08-.19-.11-.29-.02-.1-.03-.19-.03-.28,0-.1,0-.2.01-.31,0-.11.02-.21.03-.3.01-.08.04-.16.07-.23.03-.07.08-.12.14-.15.06-.03.13-.05.21-.05s.18.04.28.1c.11.06.2.14.27.22Zm-.55,1.12c.03.07.08.13.17.18s.14.06.18.02c.04-.03.06-.09.07-.16,0-.02,0-.05.01-.1,0-.05,0-.1.01-.15,0-.05,0-.1,0-.15,0-.05,0-.09,0-.11,0-.08-.01-.15-.04-.22-.03-.07-.09-.13-.17-.18-.08-.05-.14-.06-.18-.02-.04.03-.06.09-.07.16,0,.02,0,.05-.01.1s0,.1-.01.15c0,.05,0,.1-.01.15,0,.05,0,.08,0,.11,0,.08.02.15.04.22Z"/>
              </g>
              <g>
                <path class="cls-1" d="m720.97,137.1l2.6,2.66c-.22.68-.37,1.45-.43,2.29-.06.85-.02,1.72.1,2.6.04.33.09.65.16.98.36,1.83,1.04,3.64,1.97,5.25.17.29.35.58.53.86.99,1.49,2.2,2.75,3.52,3.6.12.07.23.16.35.23.12.07.23.12.35.18,1.34.69,2.62.87,3.73.59.21-.05.41-.12.6-.2,1.07-.45,1.94-1.37,2.51-2.67.1-.23.19-.47.28-.73.22-.69.37-1.45.43-2.29s.02-1.72-.1-2.6c-.04-.33-.09-.65-.16-.98-.36-1.83-1.04-3.64-1.97-5.25-.17-.29-.35-.58-.53-.86-.99-1.49-2.2-2.75-3.53-3.6l.25-3.61c1.94,1.21,3.7,3.05,5.13,5.25.18.28.36.57.53.86,1.37,2.33,2.38,4.97,2.87,7.64.06.33.11.65.16.98.18,1.28.23,2.55.15,3.79-.08,1.23-.3,2.35-.63,3.33-.08.25-.17.5-.27.73-.81,1.91-2.09,3.24-3.66,3.87-.2.08-.4.15-.6.21-1.61.44-3.47.19-5.43-.85-.12-.06-.23-.12-.35-.19-.12-.07-.23-.14-.35-.21-1.94-1.21-3.7-3.05-5.13-5.25-.18-.28-.36-.57-.53-.86-1.37-2.33-2.38-4.97-2.87-7.64-.06-.33-.11-.65-.16-.98-.18-1.28-.23-2.55-.15-3.79.08-1.23.3-2.35.64-3.33Z"/>
                <path class="cls-8" d="m724.59,131.66c.2-.08.4-.15.6-.21,1.71-.47,3.71-.21,5.8.91l-.05.78-.25,3.61-.06.81c-1.2-.61-2.35-.77-3.35-.53-.21.05-.41.11-.6.2-.96.41-1.74,1.24-2.25,2.4l-.58-.6-2.6-2.66-.56-.58c.86-2.05,2.23-3.47,3.91-4.13Z"/>
              </g>
            </g>
            <g>
              <g>
                <path class="cls-11" d="m761.46,163.18s-.05.02-.08.01c-.03-.01-.06-.04-.08-.08l-.57-.97-.19,2.75s-.02.07-.04.09c-.03.02-.05.02-.09,0l-.35-.2s-.06-.05-.08-.09c-.02-.04-.03-.09-.03-.13l.25-3.59s.02-.07.04-.09c.02-.02.05-.02.09,0l.34.2s.06.04.08.08.05.07.07.1l.88,1.5s.04.08.04.13c0,.04,0,.08-.03.1l-.23.21Z"/>
                <path class="cls-11" d="m757.34,160.04c.05-.16.13-.28.23-.36.1-.08.23-.12.38-.11.15,0,.33.07.54.19.21.12.39.27.53.43.14.16.25.34.33.53.08.19.14.39.17.6.03.21.04.43.03.65,0,.14-.01.31-.02.49s-.03.34-.04.48c-.02.21-.06.4-.12.55-.05.16-.13.28-.23.36-.1.08-.23.12-.37.11-.15,0-.33-.07-.55-.2-.21-.12-.39-.26-.53-.42-.14-.16-.25-.33-.33-.52-.08-.19-.14-.39-.17-.59-.03-.21-.04-.42-.04-.64,0-.07,0-.15.01-.24,0-.09.01-.17.02-.26,0-.09.01-.18.02-.26,0-.09.01-.16.02-.23.02-.21.06-.4.12-.55Zm1.61,2.06c.01-.17.02-.33.02-.47,0-.28-.03-.51-.11-.71-.07-.2-.21-.35-.42-.47-.2-.12-.35-.13-.45-.03-.1.1-.16.27-.19.53-.02.14-.03.29-.04.46-.01.17-.02.33-.02.47,0,.28.03.51.11.71.07.2.21.35.42.47.2.12.35.13.45.03.1-.1.16-.28.19-.54.02-.14.03-.29.04-.46Z"/>
                <path class="cls-11" d="m756.53,158.71c.07.09.14.18.19.27.05.1.08.19.11.29.02.1.03.19.03.28,0,.1,0,.2-.01.31,0,.11-.02.21-.03.3-.01.08-.03.16-.07.22-.03.07-.08.12-.14.15-.06.03-.13.05-.21.04-.08,0-.17-.04-.28-.1-.11-.06-.2-.13-.27-.22s-.14-.17-.19-.27c-.05-.1-.08-.19-.11-.29-.02-.1-.03-.19-.03-.28,0-.1,0-.2.01-.31,0-.11.02-.21.03-.3.01-.08.03-.16.07-.23.03-.07.08-.12.14-.15.06-.03.13-.05.21-.05.08,0,.18.04.28.1.11.06.2.14.27.22Zm-.13,3.76s0,.03,0,.04c0,.01,0,.02,0,.03,0,.03-.01.05-.03.06-.02,0-.05,0-.08-.01l-.26-.15s-.07-.05-.09-.08c-.02-.03-.04-.07-.06-.11l-1.9-4.85s0-.03-.01-.04c0-.01,0-.02,0-.03,0-.03.01-.05.03-.06.02,0,.05,0,.08.01l.26.15s.07.05.09.08c.02.03.04.07.06.11l1.9,4.85Zm-.42-2.64c.03.07.08.13.17.18.08.05.14.06.18.02.03-.03.06-.09.07-.16,0-.02,0-.05.01-.1,0-.05,0-.1.01-.15,0-.05,0-.1,0-.15,0-.05,0-.09,0-.11,0-.08-.01-.15-.04-.22-.03-.07-.08-.13-.17-.18-.08-.05-.14-.06-.18-.02-.03.03-.06.09-.07.16,0,.02,0,.05-.01.1,0,.05,0,.1-.01.15,0,.05,0,.1-.01.15,0,.05,0,.08,0,.11,0,.08.02.15.04.22Zm-1.46-.26c.07.09.14.18.19.27.05.1.08.19.11.29.02.1.03.19.03.28,0,.1,0,.2-.01.31,0,.11-.02.21-.03.3-.01.08-.03.16-.07.22s-.08.12-.14.15c-.06.03-.13.05-.21.04-.08,0-.17-.04-.28-.1-.11-.06-.2-.13-.27-.22-.08-.08-.14-.17-.19-.27-.05-.1-.08-.19-.11-.29-.02-.1-.03-.19-.03-.28,0-.1,0-.2.01-.31,0-.11.02-.21.03-.3.01-.08.04-.16.07-.23.03-.07.08-.12.14-.15.06-.03.13-.05.21-.05.08,0,.18.04.28.1.11.06.2.14.27.22Zm-.55,1.12c.03.07.08.13.17.18.08.05.14.06.18.02.04-.03.06-.09.07-.16,0-.02,0-.05.01-.1,0-.05,0-.1.01-.15,0-.05,0-.1,0-.15,0-.05,0-.09,0-.11,0-.08-.01-.15-.04-.22-.03-.07-.09-.13-.17-.18s-.14-.06-.18-.02c-.03.03-.06.09-.07.16,0,.02,0,.05-.01.1,0,.05,0,.1-.01.15,0,.05,0,.1-.01.15,0,.05,0,.08,0,.11,0,.08.02.15.04.22Z"/>
              </g>
              <g>
                <path class="cls-8" d="m758.13,148.04l-.05.78-.25,3.61-.06.81c-1.2-.61-2.35-.77-3.35-.53l-.33-.87-1.45-3.87-.32-.84"/>
                <path class="cls-1" d="m748.11,152.77c.08-.25.17-.5.27-.73.81-1.91,2.09-3.24,3.66-3.87l1.45,3.86c-1.07.45-1.94,1.37-2.51,2.66-.1.23-.19.47-.28.73-.22.69-.37,1.45-.43,2.29-.06.85-.02,1.72.1,2.6.04.33.09.65.16.98.36,1.83,1.04,3.64,1.97,5.25.17.29.35.58.53.86.99,1.49,2.2,2.75,3.53,3.6.12.07.23.16.35.23s.23.12.35.18c1.34.69,2.62.87,3.73.59.21-.05.41-.12.6-.2,1.07-.45,1.94-1.37,2.51-2.67.1-.23.19-.47.28-.73.22-.69.37-1.45.43-2.29.06-.85.02-1.72-.1-2.6-.04-.33-.09-.65-.16-.98-.36-1.83-1.04-3.64-1.97-5.25-.17-.29-.35-.58-.53-.86-.99-1.49-2.2-2.75-3.53-3.6l.25-3.61c1.94,1.21,3.7,3.05,5.13,5.25.18.28.36.57.53.86,1.37,2.33,2.38,4.97,2.87,7.64.06.33.11.65.16.98.18,1.28.23,2.55.15,3.79-.08,1.23-.3,2.35-.63,3.33-.08.25-.17.5-.27.73-.81,1.91-2.09,3.24-3.66,3.87-.2.08-.4.15-.6.21-1.61.44-3.47.19-5.43-.85-.12-.06-.23-.12-.35-.19s-.23-.14-.35-.21c-1.94-1.21-3.7-3.05-5.13-5.25-.18-.28-.36-.57-.53-.86-1.37-2.33-2.38-4.97-2.87-7.64-.06-.33-.11-.65-.16-.98-.18-1.28-.23-2.55-.15-3.79.08-1.23.3-2.35.63-3.33Z"/>
              </g>
            </g>
          </g>
        </g>
        <g>
          <path class="cls-15" d="m628.59,117.6l142.73,82.4c.35.2.66,0,.69-.45v-.12c.04-.45-.22-.98-.57-1.19l-142.73-82.4c-.35-.2-.66,0-.69.45v.12c-.04.45.22.98.57,1.19Z"/>
          <path class="cls-15" d="m628.28,122.17l142.73,82.4c.35.2.66,0,.69-.45v-.12c.04-.45-.22-.98-.57-1.19l-142.73-82.4c-.35-.2-.66,0-.69.45v.12c-.04.45.22.98.57,1.19Z"/>
        </g>
      </g>
    </g>
    <g>
      <g id="Bottom">
        <g>
          <path class="cls-14" d="m607.81,272.77c.01-.14-.52-8.04-.52-8.04,0,0,2.04,1.23,6.77,1.21,2.41-.01,5.84-1.96,5.84-1.96l-.5,7.82c.54-.15.68,1.18,1.58,1.69,1.57.89,4.54,1.06,7.36,1.24.75.05,1.6-.02,2.37.04h.05c2.35.5,4.31,2.57,1.4,3.98-2.91,1.41-7.08,1.12-10.91.83-4.61-.35-13.78-2.05-13.45-6.81Z"/>
          <g>
            <path d="m640.3,279.09s.3,1.03-.13,2.55c-.25.89-2.96,3.52-7.08,4.64-4.13,1.12-8.83.31-11.14.53-2.31.22-4.56,1.13-7.26,1.27-2.78.14-6.35-.04-7.83-2.52-.33-.86-.17-2.06.01-2.2.5-.38,33.44-4.26,33.44-4.26Z"/>
            <path class="cls-30" d="m619.47,270.76c.45-.22,1.02,1.3,1.63,1.51,1.8.61,4.53.59,7.37.82,3.59.28,7.77-.21,10,1.13,2.23,1.34,2.56,4.26-1.35,7.37-1.13.9-2.41,2.09-3.63,2.56-4.06,1.57-8.29.62-10.99.77-3.51.19-5.93,1.95-9.1,1.7-4.1-.32-6.22-1.29-6.64-3.73-.41-2.38.72-4.83.68-7.58-.03-1.89-.42-2.74.36-2.67,0,0,.69.95,2.39,1.45,3.04.9,3.83-.32,6.78,3.07.91,1.04,1.56.57,1.73.39.58-.62.85-1.62.78-3.31-.02-.54-.07-2.45-.07-2.45l.07-1.04Z"/>
            <path class="cls-11" d="m633.48,284.14s1.55-9.48-3.58-10.98l-.67-.04s.12-.65,2.16-.77c3.93-.24,6.39.33,8,2.12.69.76,1.44,2.81.94,4.53-.54,1.84-2.6,3.91-6.85,5.15Z"/>
            <path class="cls-11" d="m630.91,278.45s-.28-4.43-3.24-5.43c0,0-.92-.29-1.52-.09,0,0,3.31.86,3.63,5.52,0,0,.07.33.63.34.19,0,.52.02.5-.34Z"/>
            <path class="cls-11" d="m623.8,272.77s.05-.1.65-.04c.47.04.75.15.75.15,0,0,3.19,1.54,2.83,5.59,0,0,.05.34-.51.26-.62-.09-.63-.37-.63-.37,0,0,.27-3.89-3.1-5.59Z"/>
            <path class="cls-11" d="m621.62,272.42s.14-.1.61,0c.6.12.7.27.7.27,0,0,2.79,2.07,2.2,5.4,0,0-.04.36-.6.24-.58-.13-.49-.46-.49-.46,0,0,.66-3.33-2.43-5.45Z"/>
          </g>
        </g>
        <g>
          <path d="m605.55,256.1c.13,1.7.34,3.24-.3,5.11-.91,2.69-2.84,3.92-3.97,4.98-1.13,1.06-2.39,2.63-3.29,4.16-.8,1.36-1.12,2.95-3.44,4.48-2.06,1.36-5.83,1.43-8.15-.1-1.33-.88-1.95-1.21-1.86-3.64.09-2.37,9.74-2.73,9.74-2.73l11.26-12.26Z"/>
          <path class="cls-30" d="m585.46,263.85c-.6.24-.75,1.43-.85,3.81-.07,1.8-.79,4.43,1.58,5.56,1.92.91,5.5,2.01,8.87-.87,2.01-1.71,2.71-3.98,5.02-6.56,2-2.24,4.09-2.99,4.98-7.47.57-2.88.12-4.07-1.74-4.89-2.56-1.13-6.57,2.57-8.57,3.16-1.72.5-8.69,7.02-9.29,7.26Z"/>
          <path class="cls-11" d="m594.76,256.59c.11-.03.22-.08.34-.12,3.69.33,5.16,2.98,5.53,3.78.34.78-.71,1.39-1.33.78-1.43-2.96-4.36-3.61-5.53-3.76.38-.35.72-.6.99-.68Z"/>
          <path class="cls-11" d="m593.11,257.95c3.41.48,4.78,2.98,5.14,3.75.34.78-.71,1.39-1.33.78-1.13-2.34-3.21-3.24-4.61-3.59.27-.34.55-.66.81-.94Z"/>
          <path class="cls-11" d="m603.89,261.64s-.2-5.33-7.11-6.07l-.4.23s1.1-2.09,3.4-2.73c2.3-.65,4.11-.03,5.32,1.59,1.21,1.62-.02,5.94-1.21,6.98Z"/>
        </g>
        <path class="cls-14" d="m584.87,249.34s.41,14.15.53,15.03c.11.89.43,1.82,3.87,2.1,3.44.27,6.04-1.75,6.46-2.75.43-1.01,1.51-14.64,1.51-14.64l-12.37.26Z"/>
        <path class="cls-30" d="m582.78,230.04c0-10.09.59-13.83.59-13.83,0,0-.44-13.38-.35-27.55.11-19.66-1.16-23.58,2.07-34.32,5.31,4.59,26.89,6.26,38.69,3.39.34,23.72-.46,56.19-.71,62.46-.28,7.06-.59,13.22-1.79,29.67-.78,10.68-1.51,19.24-1.51,19.24-6.41,3.94-12.55-.15-12.55-.15,0,0-1.69-20.01-2.42-27.2-.78-7.64.24-18.66.24-18.66,0,0-1.62-16.73-2.21-21.32,0,0-.71,7.07-1.16,13.32-.45,6.25-.96,8.85-2.05,20.94-1.07,11.86-2.88,25.25-2.88,25.25-6.9,2.2-11.86,0-11.86,0,0,0-2.08-24.1-2.08-31.24Z"/>
        <path d="m602.82,201.77l-2.31-19.2s-6.64.09-12.46-4.78c0,0,1.68,4.87,9.83,7.5l3.28,16.53.55,12.65,1.11-12.7Z"/>
      </g>
      <g>
        <polygon class="cls-26" points="608.27 107.06 606.91 117.05 593.34 116.36 594.81 105.54 608.27 107.06"/>
        <g>
          <path class="cls-14" d="m613.68,88.38c1.04,1.33,4.29,5.33,4.41,6.09l-2.65,1.62-1.76-7.72Z"/>
          <path class="cls-26" d="m606.13,78.33c4.19-.45,6.91,2.52,8.13,11.45.05.35.57.9.96,2.23,1.68,5.73.74,11.18-.23,12.63-2.43,1.95-5.13,2.68-9.04,2.35-2.98-.25-10.59-1.16-14.44-5.19-4.54-4.74-6.83-11.88-3.61-15.58,4.53-5.21,15.92-7.65,18.23-7.9Z"/>
          <path class="cls-14" d="m614.99,104.64c-.54.8-4.38,2.77-6.79,2.93l.23-1.88s3.26-.01,6.56-1.05Z"/>
        </g>
        <path class="cls-30" d="m611.57,85.71c-.97,2.7-4.02,3.65-5.83,3.53.05,0,.29.37.32.42.1.15.2.31.29.47.18.32.32.66.43,1.01.22.7.31,1.44.26,2.17-.02.23.02.45-.07.67-.29.68-.98.74-1.4.23-.5-.61-.89-1.28-1.53-1.77-.73-.58-1.66-.95-2.59-.88-3.52.27-2.66,4.9-.93,6.52,2.83,2.64,4.33.36,4.33.36,0,0,2.03,4.49-.93,7.11,0,0-5.11,2.21-9.12.96-3-3.23-5.73-4.88-7.03-8.06-2.86-6.99-1.36-10.69-1.72-14.97-.17-2.34,1.09-5.86,5.9-7.89,4.58-1.94,7.64-1.74,10.95-1.56s8.72.75,11.45,3.8c.77,1.84.43,5.57-.65,7.25"/>
      </g>
      <g>
        <path class="cls-23" d="m591.44,111.1c-5.04-.24-10.05,1.26-13.11,8.27-2.9,6.64-6.97,16.23-8.47,21.05-.73,2.35-2.06,4.46,2.32,8.61,6,5.67,13.45,9.59,13.45,9.59l4.41-9.44-6.89-6.61,3.04-6.32,5.24-25.14Z"/>
        <path class="cls-30" d="m583.16,142.56c-.72,1.19-2.39,2.85-4.09,3.45,1.94.47,4.07-1.62,4.72-2.85l-.63-.6Z"/>
      </g>
      <path class="cls-23" d="m587.81,112.6c-3.52,1.97-6.19,8.55-5.94,14.04.16,3.47,1.39,12.45,2.43,20.38.33,2.5-.67,6.72-1.13,11.79-.34,3.76-.39,7.76-.39,7.76,0,0,4.72,5.84,17.67,6.6,16.53.97,23.85-3.02,23.85-3.02,0,0,.1-13.47-.3-24.14-.59-15.82-.62-20.45-3.1-25.83-.82-1.59-1.67-5.14-4.37-5.84-2.13-.55-7.06-1.73-9.01-2.03-3.2.82-11.48.89-13.54-.86l.03-.46c-3.56-.04-4.06.4-6.23,1.61Z"/>
    </g>
    <g>
      <g id="Bottom-2" data-name="Bottom">
        <g>
          <path class="cls-28" d="m349.45,275.93c-.01-.14.52-8.04.52-8.04,0,0-2.04,1.23-6.77,1.21-2.41-.01-5.84-1.96-5.84-1.96l.5,7.82c-.54-.15-.68,1.18-1.58,1.69-1.57.89-4.54,1.06-7.36,1.24-.75.05-1.6-.02-2.37.04h-.05c-2.35.5-4.31,2.57-1.4,3.98,2.91,1.41,7.08,1.12,10.91.83,4.61-.35,13.78-2.05,13.45-6.81Z"/>
          <g>
            <path d="m316.96,282.25s-.3,1.03.13,2.55c.25.89,2.96,3.52,7.08,4.64,4.13,1.12,8.83.31,11.14.53,2.31.22,4.56,1.13,7.26,1.27,2.78.14,6.35-.04,7.83-2.52.33-.86.17-2.06-.01-2.2-.5-.38-33.44-4.26-33.44-4.26Z"/>
            <path class="cls-16" d="m337.79,273.92c-.45-.22-1.02,1.3-1.63,1.51-1.8.61-4.53.59-7.37.82-3.59.28-7.77-.21-10,1.13-2.23,1.34-2.56,4.26,1.35,7.37,1.13.9,2.41,2.09,3.63,2.56,4.06,1.57,8.29.62,10.99.77,3.51.19,5.93,1.95,9.1,1.7,4.1-.32,6.22-1.29,6.64-3.73.41-2.38-.72-4.83-.68-7.58.03-1.89.42-2.74-.36-2.67,0,0-.69.95-2.39,1.45-3.04.9-3.83-.32-6.78,3.07-.91,1.04-1.56.57-1.73.39-.58-.62-.85-1.62-.78-3.31.02-.54.07-2.45.07-2.45l-.07-1.04Z"/>
            <path class="cls-11" d="m323.78,287.3s-1.55-9.48,3.58-10.98l.67-.04s-.12-.65-2.16-.77c-3.93-.24-6.39.33-8,2.12-.69.76-1.44,2.81-.94,4.53.54,1.84,2.6,3.91,6.85,5.15Z"/>
            <path class="cls-11" d="m326.35,281.61s.28-4.43,3.24-5.43c0,0,.92-.29,1.52-.09,0,0-3.31.86-3.63,5.52,0,0-.07.33-.63.34-.19,0-.52.02-.5-.34Z"/>
            <path class="cls-11" d="m333.46,275.92s-.05-.1-.65-.04c-.47.04-.75.15-.75.15,0,0-3.19,1.54-2.83,5.59,0,0-.05.34.51.26.62-.09.63-.37.63-.37,0,0-.27-3.89,3.1-5.59Z"/>
            <path class="cls-11" d="m335.64,275.58s-.14-.1-.61,0c-.6.12-.7.27-.7.27,0,0-2.79,2.07-2.2,5.4,0,0,.04.36.6.24.58-.13.49-.46.49-.46,0,0-.66-3.33,2.43-5.45Z"/>
          </g>
        </g>
        <g>
          <path d="m351.71,259.25c-.13,1.7-.34,3.24.3,5.11.91,2.69,2.84,3.92,3.97,4.98,1.13,1.06,2.39,2.63,3.29,4.16.8,1.36,1.12,2.95,3.44,4.48,2.06,1.36,5.83,1.43,8.15-.1,1.33-.88,1.95-1.21,1.86-3.64-.09-2.37-9.74-2.73-9.74-2.73l-11.26-12.26Z"/>
          <path class="cls-15" d="m371.8,267.01c.6.24.75,1.43.85,3.81.07,1.8.79,4.43-1.58,5.56-1.92.91-5.5,2.01-8.87-.87-2.01-1.71-2.71-3.98-5.02-6.56-2-2.24-4.09-2.99-4.98-7.47-.57-2.88-.12-4.07,1.74-4.89,2.56-1.13,6.57,2.57,8.57,3.16,1.72.5,8.69,7.02,9.29,7.26Z"/>
          <path class="cls-11" d="m362.5,259.75c-.11-.03-.22-.08-.34-.12-3.69.33-5.16,2.98-5.53,3.78-.34.78.71,1.39,1.33.78,1.43-2.96,4.36-3.61,5.53-3.76-.38-.35-.72-.6-.99-.68Z"/>
          <path class="cls-11" d="m364.15,261.1c-3.41.48-4.78,2.98-5.14,3.75-.34.78.71,1.39,1.33.78,1.13-2.34,3.21-3.24,4.61-3.59-.27-.34-.55-.66-.81-.94Z"/>
          <path class="cls-11" d="m353.37,264.8s.2-5.33,7.11-6.07l.4.23s-1.1-2.09-3.4-2.73c-2.3-.65-4.11-.03-5.32,1.59-1.21,1.62.02,5.94,1.21,6.98Z"/>
        </g>
        <path class="cls-28" d="m372.39,252.5s-.41,14.15-.53,15.03c-.11.89-.43,1.82-3.87,2.1-3.44.27-6.04-1.75-6.46-2.75-.43-1.01-1.51-14.64-1.51-14.64l12.37.26Z"/>
        <path class="cls-30" d="m374.48,233.2c0-10.09-.59-13.83-.59-13.83,0,0,.44-13.38.35-27.55-.11-19.66,1.16-23.58-2.07-34.32-5.31,4.59-26.89,6.26-38.69,3.39-.34,23.72.46,56.19.71,62.46.28,7.06.59,13.22,1.79,29.67.78,10.68,1.51,19.24,1.51,19.24,6.41,3.94,12.55-.15,12.55-.15,0,0,1.69-20.01,2.42-27.2.78-7.64-.24-18.66-.24-18.66,0,0,1.62-16.73,2.21-21.32,0,0,.71,7.07,1.16,13.32.45,6.25.96,8.85,2.05,20.94,1.07,11.86,2.88,25.25,2.88,25.25,6.9,2.2,11.86,0,11.86,0,0,0,2.08-24.1,2.08-31.24Z"/>
        <path d="m354.44,204.92l2.31-19.2s6.64.09,12.46-4.78c0,0-1.68,4.87-9.83,7.5l-3.28,16.53-.55,12.65-1.11-12.7Z"/>
      </g>
      <g>
        <polygon class="cls-21" points="348.99 110.22 350.35 120.21 363.92 119.52 362.45 108.7 348.99 110.22"/>
        <g>
          <path class="cls-28" d="m343.58,91.54c-1.04,1.33-4.29,5.33-4.41,6.09l2.65,1.62,1.76-7.72Z"/>
          <path class="cls-21" d="m351.13,81.49c-4.19-.45-6.91,2.52-8.13,11.45-.05.35-.57.9-.96,2.23-1.68,5.73-.74,11.18.23,12.63,2.43,1.95,5.13,2.68,9.04,2.35,2.98-.25,10.59-1.16,14.44-5.19,4.54-4.74,6.83-11.88,3.61-15.58-4.53-5.21-15.92-7.65-18.23-7.9Z"/>
          <path class="cls-28" d="m342.27,107.8c.54.8,4.38,2.77,6.79,2.93l-.23-1.88s-3.26-.01-6.56-1.05Z"/>
        </g>
        <path class="cls-30" d="m350.3,97.13c.29.68-6.09,6.38-5.67,5.87.5-.61-3,2.73-2.91,3.53.26,2.17,3.31,3.42,3.94,3.7,3.55,1.64,9.62-14.31,7.89-12.7-1.13,1.06,7.71-.64.46,4.97-.91.7-2.16.67-2.24,1.81-.1,1.31.12,2.86,1.28,4.09.2.22.47.37.75.47,1.24.47,4.91,1.67,8.1.95.38-.09.79.14,1.06-.15,2.77-2.98,3.36,5.06,7.29,1.93,8.05-6.43,1.67-18.38,1.66-24.43,0-.55-.63-.89-.68-1.44-.19-2.27-1.68-5.2-5.89-6.98-4.58-1.94-7.64-1.74-10.95-1.56-2.57.14-5.6,1.08-8.26.3-1.41-.42-2.81.84-2.56,2.29.02.1.04.2.06.29.19.85-.26,1.67-1.03,2.08-.38.2-.69.51-.88.89-.3.63-.22,1.39.13,1.98.29.49.28,1.06.08,1.59-.13.35-.15.75-.03,1.11.24.72.97,1.22,1.72,1.27.32.02.59.03.85.01.69-.04,1.36.31,1.75.89,1.28,1.92,3.75,2.6,5.31,2.5-.05,0-.29.37-.32.42-.1.15-.2.31-.29.47-.18.32-.32.66-.43,1.01-.22.7-.31,1.44-.26,2.17.02.23-.02.45.07.67Z"/>
      </g>
      <g>
        <path class="cls-19" d="m365.82,114.26c5.04-.24,10.05,1.26,13.11,8.27,2.9,6.64,6.97,16.23,8.47,21.05.73,2.35,2.06,4.46-2.32,8.61-6,5.67-13.45,9.59-13.45,9.59l-4.41-9.44,6.89-6.61-3.04-6.32-5.24-25.14Z"/>
        <path class="cls-30" d="m374.1,145.72c.72,1.19,2.39,2.85,4.09,3.45-1.94.47-4.07-1.62-4.72-2.85l.63-.6Z"/>
      </g>
      <path class="cls-25" d="m369.45,115.76c3.52,1.97,6.19,8.55,5.94,14.04-.16,3.47-1.39,12.45-2.43,20.38-.33,2.5.67,6.72,1.13,11.79.34,3.76.39,7.76.39,7.76,0,0-4.72,5.84-17.67,6.6-16.53.97-23.85-3.02-23.85-3.02,0,0-.1-13.47.3-24.14.59-15.82.62-20.45,3.1-25.83.82-1.59,1.67-5.14,4.37-5.84,2.13-.55,7.06-1.73,9.01-2.03,3.2.82,11.48.89,13.54-.86l-.03-.46c3.56-.04,4.06.4,6.23,1.61Z"/>
    </g>
    <g id="Arm">
      <path class="cls-14" d="m669.44,101.29c1.82-2.28,2.79-3.23,3.76-3.8.98-.57,4.27-3.08,5.59-3.81.84-.46,1.58.87.69,2.16-.68.99-2.71,2.58-3.57,3.4-.86.81-2.21,3.73-2.21,3.73l-4.27-1.67Z"/>
      <path class="cls-26" d="m650.1,131.62c-1.9,1.07-3.79.79-10.27.45-4.63-.24-11.03-.43-21.91-1.45-4.07-4.07-5.05-11.18-1-15.55,4.23-.98,17.05,4.16,30.74,3.86,0,0,13.49-6.17,14.98-7.27,1.49-1.1,4.22-6.87,5.24-8.55,1.4-2.29,2.39-2.29,3.38-2.4,3.24-.35,3.99-.27,4.76-.02.77.25.92,1.05.92,1.05.85-.11,2.09-.46,2.6.85.34.87.34,1.08.34,1.08,0,0,.31-.05.62.17.9.62.44,3.69-.13,4.56-.4.61-1.14.87-2.16.99-.87.11-.7-.85-.7-.85l-1.15.38c-2.06,2.47-1.25,6.07-4.4,7.73-.66.35-2.12.71-3.88,1.87-7.7,6.14-15.51,11.7-17.98,13.09Z"/>
      <g>
        <path class="cls-14" d="m676.95,101.76l-3.9.22,3.69-.72c.1.16.17.32.21.49Z"/>
        <path class="cls-14" d="m679.89,103.69l-4.4.57,4.28-1.06c.06.15.1.32.12.5Z"/>
        <path class="cls-14" d="m679.82,105.71c-.07.25-.24.47-.44.65-.2.18-.42.32-.66.44l.05-.06c-.05.25-.12.5-.19.75l-.12-.09c.24-.11.5-.1.72-.01.23.09.39.27.52.46-.16-.16-.35-.29-.56-.35-.2-.05-.43-.04-.61.05l-.16.08.04-.17c.06-.25.12-.5.18-.75v-.04s.05-.02.05-.02c.23-.1.45-.24.66-.38.2-.15.4-.32.52-.56Z"/>
        <path class="cls-14" d="m678.83,106.55c-.4.2-1.51.51-1.51.51,0,0,.05.31-.31.96-.19.35-.64.91-.64.91l1.15-.38s.15-.6,1.15-1.08l.17-.92Z"/>
      </g>
      <path class="cls-23" d="m616.15,114.24c2.24.1,4.79.21,8.3,1.17,2.52.69,11.74,2.42,14.38,2.68,2.64.25,8.84.57,8.84.57l8.16-3.52s1.44.49,2.9,3.52c1.46,3.03.5,7.03.5,7.03,0,0-7.21,4.97-8.78,5.99-1.57,1.01-2.47,1.25-4.87,1.07-2.4-.18-18.52-1.17-20.35-.96-1.83.21-2.34.86-3.37,1.45-1.03.59-3.77-.42-5.53-3.09-1.76-2.66-5.39-12.01-.19-15.91Z"/>
    </g>
  </g>
  <g id="Documents">
    <g id="Document">
      <g id="Sheet">
        <polygon class="cls-1" points="204.06 90.09 202 88.9 294.71 35.38 296.78 36.57 204.06 90.09"/>
        <g>
          <polygon class="cls-3" points="296.78 36.57 296.78 178.96 204.03 232.5 204.06 90.09 296.78 36.57"/>
          <path class="cls-20" d="m296.28,37.42v141.25l-91.76,52.98.04-141.27,91.72-52.96m.49-.86l-92.71,53.53-.04,142.41,92.75-53.55V36.57h0Z"/>
        </g>
        <polygon class="cls-15" points="204.06 90.09 204.03 232.5 202.02 231.35 202 88.9 204.03 90.07 204.06 90.09"/>
      </g>
      <g>
        <g>
          <g id="Chart">
            <g>
              <path class="cls-15" d="m218.06,119.27c-2.26,3.5-3.99,7.62-4.87,11.75-.42,1.99-.66,3.98-.66,5.9s.23,3.65.66,5.15l3.33-3.37c-.31-1.11-.49-2.37-.49-3.8s.17-2.9.49-4.36c.65-3.06,1.93-6.09,3.6-8.68,1.64-2.53,3.64-4.64,5.82-5.89v-4.67c-2.95,1.7-5.67,4.54-7.88,7.97Z"/>
              <path class="cls-19" d="m238.7,116.3c-.88-3.12-2.61-5.23-4.87-6.12-2.21-.87-4.93-.57-7.88,1.13v4.67c2.18-1.26,4.18-1.47,5.82-.83,1.67.66,2.95,2.21,3.6,4.52.31,1.11.49,2.37.49,3.8s-.17,2.9-.49,4.36c-.65,3.06-1.93,6.09-3.6,8.68-1.64,2.53-3.64,4.64-5.82,5.89-2.18,1.26-4.18,1.47-5.82.83-1.67-.66-2.95-2.21-3.6-4.52l-3.33,3.37c.88,3.12,2.61,5.23,4.87,6.12,2.21.87,4.93.57,7.88-1.13,2.95-1.7,5.67-4.54,7.88-7.97,2.26-3.5,3.99-7.62,4.87-11.75.42-1.99.66-3.98.66-5.9s-.23-3.65-.66-5.15Z"/>
            </g>
          </g>
          <g id="Chart-2" data-name="Chart">
            <polygon class="cls-27" points="225.94 159.12 225.94 159.12 225.94 154.45 225.94 154.45 225.94 159.12"/>
            <path class="cls-19" d="m235.85,166.61c0-1.43-.17-2.69-.49-3.8-.65-2.3-1.93-3.86-3.6-4.52-1.64-.64-3.64-.43-5.82.83v-4.67c2.95-1.7,5.67-2,7.88-1.13,2.26.89,3.99,3.01,4.87,6.12.42,1.5.66,3.22.66,5.15s-.23,3.92-.66,5.9l-3.33.48c.31-1.47.49-2.94.49-4.36Z"/>
            <polygon class="cls-27" points="225.94 185.54 225.94 190.21 225.94 190.21 225.94 185.54 225.94 185.54"/>
            <g>
              <path class="cls-15" d="m218.06,162.42c-2.26,3.5-3.99,7.62-4.87,11.75-.42,1.99-.66,3.98-.66,5.9s.23,3.65.66,5.15c.88,3.12,2.61,5.23,4.87,6.12,2.21.87,4.93.57,7.87-1.13v-4.67c-2.17,1.25-4.18,1.46-5.81.82-1.67-.66-2.95-2.21-3.6-4.52-.31-1.11-.49-2.37-.49-3.8s.17-2.9.49-4.36c.65-3.06,1.93-6.09,3.6-8.68,1.63-2.53,3.64-4.63,5.81-5.89v-4.67c-2.94,1.7-5.66,4.54-7.87,7.96Z"/>
              <path class="cls-15" d="m235.37,170.97c-.65,3.06-1.93,6.09-3.6,8.68-1.64,2.53-3.64,4.64-5.82,5.89v4.67c2.95-1.7,5.67-4.54,7.88-7.97,2.26-3.5,3.99-7.62,4.87-11.75l-3.33.48Z"/>
            </g>
          </g>
        </g>
        <g>
          <g id="Check_List" data-name="Check List">
            <g>
              <g>
                <path class="cls-15" d="m251.98,105.29c-.07,0-.13-.02-.19-.05-.12-.07-.19-.2-.19-.34v-7.26c0-.14.07-.27.19-.34l6.29-3.63c.12-.07.27-.07.39,0,.12.07.19.2.19.34v7.26c0,.14-.07.27-.19.34l-6.29,3.63c-.06.03-.13.05-.19.05Zm.39-7.43v6.37l5.52-3.19v-6.37s-5.52,3.18-5.52,3.18Z"/>
                <path id="Check" class="cls-19" d="m259.01,92.18c-.39-.16-.84.02-1,.41l-2.88,6.86-.69-.67c-.3-.29-.78-.29-1.08.02-.29.3-.29.79.02,1.08l1.49,1.45c.14.14.33.22.53.22.05,0,.1,0,.15-.02.25-.05.45-.22.55-.45l3.32-7.89c.16-.39-.02-.84-.41-1Z"/>
              </g>
              <path class="cls-15" d="m263.61,93.46l23.15-13.37c.56-.32,1.01-.09,1.01.51s-.45,1.36-1.01,1.68l-23.15,13.37c-.56.32-1.01.09-1.01-.51,0-.6.45-1.35,1.01-1.68Z"/>
            </g>
            <g>
              <g>
                <path class="cls-15" d="m251.98,127.08c-.07,0-.13-.02-.19-.05-.12-.07-.19-.2-.19-.33v-7.26c0-.14.07-.27.19-.34l6.29-3.63c.12-.07.27-.07.39,0,.12.07.19.2.19.34v7.26c0,.14-.07.27-.19.33l-6.29,3.63c-.06.03-.13.05-.19.05Zm.39-7.43v6.37l5.52-3.18v-6.37l-5.52,3.18Z"/>
                <path id="Check-2" data-name="Check" class="cls-8" d="m259.01,113.98c-.39-.16-.84.02-1,.41l-2.88,6.86-.69-.67c-.3-.29-.78-.29-1.08.02-.29.3-.29.79.02,1.08l1.49,1.45c.14.14.33.22.53.22.05,0,.1,0,.15-.02.25-.05.45-.22.55-.45l3.32-7.89c.16-.39-.02-.84-.41-1Z"/>
              </g>
              <path class="cls-15" d="m263.61,115.18l23.15-13.37c.56-.32,1.01-.09,1.01.51s-.45,1.36-1.01,1.68l-23.15,13.37c-.56.32-1.01.09-1.01-.51,0-.6.45-1.35,1.01-1.68Z"/>
            </g>
          </g>
          <g>
            <polygon class="cls-15" points="255.05 173.01 251.31 175.16 251.31 133.35 255.05 131.19 255.05 173.01"/>
            <polygon class="cls-15" points="261.65 169.19 257.91 171.35 257.91 129.54 261.65 127.38 261.65 169.19"/>
            <polygon class="cls-15" points="274.85 161.57 271.11 163.73 271.11 121.91 274.85 119.75 274.85 161.57"/>
            <polygon class="cls-15" points="281.45 157.76 277.71 159.92 277.71 118.1 281.45 115.94 281.45 157.76"/>
            <polygon class="cls-15" points="288.05 153.95 284.31 156.11 284.31 114.29 288.05 112.13 288.05 153.95"/>
            <polygon class="cls-19" points="284.31 114.29 288.05 112.13 288.05 131.22 284.31 133.38 284.31 114.29"/>
            <polygon class="cls-17" points="251.31 165.83 255.05 163.67 255.05 173.01 251.31 175.16 251.31 165.83"/>
            <polygon class="cls-17" points="257.91 152.38 261.65 150.22 261.65 169.19 257.91 171.35 257.91 152.38"/>
            <polygon class="cls-17" points="264.51 136.56 268.25 134.4 268.25 165.38 264.51 167.54 264.51 136.56"/>
            <g>
              <polygon class="cls-19" points="271.11 131.04 274.85 128.88 274.85 147.36 271.11 149.52 271.11 131.04"/>
              <polygon class="cls-17" points="271.11 149.52 274.85 147.36 274.85 161.57 271.11 163.73 271.11 149.52"/>
            </g>
            <g>
              <polygon class="cls-19" points="277.71 134.74 281.45 132.58 281.45 140.39 277.71 142.55 277.71 134.74"/>
              <polygon class="cls-17" points="277.71 142.55 281.45 140.39 281.45 157.76 277.71 159.92 277.71 142.55"/>
            </g>
            <polygon class="cls-17" points="284.31 133.38 288.05 131.22 288.05 153.95 284.31 156.11 284.31 133.38"/>
            <polygon class="cls-27" points="251.31 165.83 255.05 163.67 255.05 173.01 251.31 175.16 251.31 165.83"/>
            <polygon class="cls-13" points="251.31 165.83 255.05 163.67 255.05 173.01 251.31 175.16 251.31 165.83"/>
            <polygon class="cls-27" points="257.91 152.38 261.65 150.22 261.65 169.19 257.91 171.35 257.91 152.38"/>
            <polygon class="cls-13" points="257.91 152.38 261.65 150.22 261.65 169.19 257.91 171.35 257.91 152.38"/>
            <polygon class="cls-27" points="271.11 149.52 274.85 147.36 274.85 161.57 271.11 163.73 271.11 149.52"/>
            <polygon class="cls-13" points="271.11 149.52 274.85 147.36 274.85 161.57 271.11 163.73 271.11 149.52"/>
            <polygon class="cls-27" points="277.71 142.55 281.45 140.39 281.45 157.76 277.71 159.92 277.71 142.55"/>
            <polygon class="cls-13" points="277.71 142.55 281.45 140.39 281.45 157.76 277.71 159.92 277.71 142.55"/>
          </g>
        </g>
        <g>
          <path class="cls-15" d="m210.82,100.69c-.17,0-.34-.09-.43-.25-.14-.24-.06-.54.18-.68l79.17-45.83c.23-.14.54-.06.68.18.14.24.06.54-.18.68l-79.17,45.83c-.08.05-.16.07-.25.07Z"/>
          <path class="cls-15" d="m210.82,105.31c-.17,0-.34-.09-.43-.25-.14-.24-.06-.54.18-.68l79.17-45.83c.23-.14.54-.06.68.18.14.24.06.54-.18.68l-79.17,45.83c-.08.05-.16.07-.25.07Z"/>
          <path class="cls-15" d="m210.82,109.93c-.17,0-.34-.09-.43-.25-.14-.24-.06-.54.18-.68l79.17-45.83c.23-.14.54-.06.68.18.14.24.06.54-.18.68l-79.17,45.83c-.08.05-.16.07-.25.07Z"/>
        </g>
        <g>
          <path class="cls-15" d="m210.82,207.11c-.17,0-.34-.09-.43-.25-.14-.24-.06-.54.18-.68l79.17-45.83c.23-.14.54-.06.68.18.14.24.06.54-.18.68l-79.17,45.83c-.08.05-.16.07-.25.07Z"/>
          <path class="cls-15" d="m210.82,211.73c-.17,0-.34-.09-.43-.25-.14-.24-.06-.54.18-.68l79.17-45.83c.23-.14.54-.06.68.18.14.24.06.54-.18.68l-79.17,45.83c-.08.05-.16.07-.25.07Z"/>
          <path class="cls-15" d="m210.82,216.36c-.17,0-.34-.09-.43-.25-.14-.24-.06-.54.18-.68l79.17-45.83c.23-.14.54-.06.68.18.14.24.06.54-.18.68l-79.17,45.83c-.08.05-.16.07-.25.07Z"/>
        </g>
      </g>
    </g>
    <polygon id="Shadow-2" data-name="Shadow" class="cls-22" points="285.28 185.95 285.28 124.13 223.37 159.88 223.35 221.7 285.28 185.95"/>
    <g id="Document-2" data-name="Document">
      <g id="Sheet-2" data-name="Sheet">
        <polygon class="cls-1" points="245.37 160.05 243.3 158.86 336.01 105.33 338.08 106.53 245.37 160.05"/>
        <g>
          <polygon class="cls-9" points="338.08 106.52 338.08 248.92 245.33 302.46 245.37 160.05 338.08 106.52"/>
          <path class="cls-5" d="m337.58,107.38v141.25l-91.76,52.98.04-141.27,91.72-52.96m.49-.86l-92.71,53.53-.04,142.41,92.75-53.55V106.52h0Z"/>
        </g>
        <polygon class="cls-15" points="245.37 160.05 245.33 302.46 243.32 301.3 243.3 158.86 245.33 160.03 245.37 160.05"/>
      </g>
      <g>
        <g>
          <polygon class="cls-23" points="307.76 213.68 312.86 210.73 312.86 220.16 307.76 223.11 307.76 213.68"/>
          <polygon class="cls-23" points="316.76 205.47 321.86 202.52 321.86 214.96 316.76 217.91 316.76 205.47"/>
          <polygon class="cls-23" points="325.77 198.27 330.87 195.33 330.87 209.76 325.77 212.71 325.77 198.27"/>
        </g>
        <g>
          <path class="cls-15" d="m251.87,272.97c-.17,0-.34-.09-.43-.25-.14-.24-.06-.54.18-.68l79.17-45.83c.23-.14.54-.06.68.18.14.24.06.54-.18.68l-79.17,45.83c-.08.05-.17.07-.25.07Z"/>
          <path class="cls-15" d="m251.87,277.59c-.17,0-.34-.09-.43-.25-.14-.24-.06-.54.18-.68l79.17-45.83c.23-.14.54-.06.68.18.14.24.06.54-.18.68l-79.17,45.83c-.08.05-.16.07-.25.07Z"/>
          <path class="cls-15" d="m251.87,282.21c-.17,0-.34-.09-.43-.25-.14-.24-.06-.54.18-.68l79.17-45.83c.23-.14.54-.06.68.18.14.24.06.54-.18.68l-79.17,45.83c-.08.05-.16.07-.25.07Z"/>
        </g>
        <path class="cls-11" d="m251.77,169.72c-.17,0-.34-.09-.43-.25-.14-.24-.06-.54.18-.68l40.62-23.45c.24-.14.54-.06.68.18.14.24.06.55-.18.68l-40.62,23.45c-.08.05-.17.07-.25.07Z"/>
        <g>
          <path class="cls-15" d="m251.77,183.79c-.17,0-.34-.09-.43-.25-.14-.24-.06-.54.18-.68l36.56-21.11c.24-.14.54-.06.68.18.14.24.06.55-.18.68l-36.56,21.11c-.08.05-.17.07-.25.07Z"/>
          <path class="cls-15" d="m251.77,188.48c-.17,0-.34-.09-.43-.25-.14-.24-.06-.54.18-.68l36.56-21.11c.24-.14.54-.06.68.18.14.24.06.54-.18.68l-36.56,21.11c-.08.05-.17.07-.25.07Z"/>
          <path class="cls-15" d="m251.77,193.17c-.17,0-.34-.09-.43-.25-.14-.24-.06-.54.18-.68l36.56-21.11c.24-.14.54-.06.68.18.14.24.06.54-.18.68l-36.56,21.11c-.08.05-.17.07-.25.07Z"/>
          <path class="cls-15" d="m251.77,197.86c-.17,0-.34-.09-.43-.25-.14-.24-.06-.54.18-.68l36.56-21.11c.24-.14.54-.06.68.18.14.24.06.55-.18.68l-36.56,21.11c-.08.05-.17.07-.25.07Z"/>
          <path class="cls-15" d="m251.77,202.55c-.17,0-.34-.09-.43-.25-.14-.24-.06-.54.18-.68l36.56-21.11c.24-.14.54-.06.68.18.14.24.06.54-.18.68l-36.56,21.11c-.08.05-.17.07-.25.07Z"/>
          <path class="cls-15" d="m251.77,207.24c-.17,0-.34-.09-.43-.25-.14-.24-.06-.55.18-.68l36.56-21.11c.24-.14.54-.06.68.18.14.24.06.54-.18.68l-36.56,21.11c-.08.05-.17.07-.25.07Z"/>
          <path class="cls-15" d="m251.77,211.93c-.17,0-.34-.09-.43-.25-.14-.24-.06-.54.18-.68l36.56-21.11c.24-.14.54-.06.68.18.14.24.06.55-.18.68l-36.56,21.11c-.08.05-.17.07-.25.07Z"/>
        </g>
        <g>
          <path class="cls-15" d="m294.13,159.34c-.17,0-.34-.09-.43-.25-.14-.24-.06-.55.18-.68l36.56-21.11c.24-.14.54-.06.68.18.14.24.06.54-.18.68l-36.56,21.11c-.08.05-.16.07-.25.07Z"/>
          <path class="cls-15" d="m294.13,164.03c-.17,0-.34-.09-.43-.25-.14-.24-.06-.54.18-.68l36.56-21.11c.24-.14.54-.06.68.18.14.24.06.54-.18.68l-36.56,21.11c-.08.05-.16.07-.25.07Z"/>
          <path class="cls-15" d="m294.13,168.72c-.17,0-.34-.09-.43-.25-.14-.24-.06-.54.18-.68l36.56-21.11c.24-.14.54-.06.68.18.14.24.06.54-.18.68l-36.56,21.11c-.08.05-.16.07-.25.07Z"/>
          <path class="cls-15" d="m294.13,173.41c-.17,0-.34-.09-.43-.25-.14-.24-.06-.55.18-.68l36.56-21.11c.24-.14.54-.06.68.18.14.24.06.55-.18.68l-36.56,21.11c-.08.05-.16.07-.25.07Z"/>
          <path class="cls-15" d="m294.13,178.1c-.17,0-.34-.09-.43-.25-.14-.24-.06-.54.18-.68l36.56-21.11c.24-.14.54-.06.68.18.14.24.06.54-.18.68l-36.56,21.11c-.08.05-.16.07-.25.07Z"/>
          <path class="cls-15" d="m294.13,182.79c-.17,0-.34-.09-.43-.25-.14-.24-.06-.54.18-.68l36.56-21.11c.24-.14.54-.06.68.18.14.24.06.54-.18.68l-36.56,21.11c-.08.05-.16.07-.25.07Z"/>
          <path class="cls-15" d="m294.13,187.48c-.17,0-.34-.09-.43-.25-.14-.24-.06-.54.18-.68l36.56-21.11c.24-.14.54-.06.68.18.14.24.06.55-.18.68l-36.56,21.11c-.08.05-.16.07-.25.07Z"/>
        </g>
      </g>
    </g>
    <g id="Document-3" data-name="Document">
      <g id="Sheet-3" data-name="Sheet">
        <polygon class="cls-1" points="18.78 95.97 16.72 94.78 109.43 41.25 111.49 42.44 18.78 95.97"/>
        <g>
          <polygon class="cls-9" points="111.49 42.44 111.49 184.83 18.74 238.38 18.78 95.97 111.49 42.44"/>
          <path class="cls-4" d="m111,43.3v141.25l-91.76,52.98.04-141.27,91.72-52.96m.49-.86L18.78,95.97l-.04,142.41,92.75-53.55V42.44h0Z"/>
        </g>
        <polygon class="cls-15" points="18.78 95.97 18.74 238.38 16.74 237.22 16.72 94.78 18.74 95.94 18.78 95.97"/>
      </g>
      <g>
        <g>
          <polygon class="cls-8" points="36.15 167.98 41.25 165.04 41.25 182.07 36.15 185.01 36.15 167.98"/>
          <polygon class="cls-23" points="45.16 152.01 50.26 149.06 50.26 176.87 45.16 179.82 45.16 152.01"/>
          <polygon class="cls-8" points="54.16 161.87 59.26 158.92 59.26 171.67 54.16 174.62 54.16 161.87"/>
        </g>
        <g>
          <path class="cls-15" d="m25.28,208.88c-.17,0-.34-.09-.43-.25-.14-.24-.06-.54.18-.68l79.17-45.83c.23-.14.54-.06.68.18.14.24.06.54-.18.68l-79.17,45.83c-.08.05-.17.07-.25.07Z"/>
          <path class="cls-15" d="m25.28,213.51c-.17,0-.34-.09-.43-.25-.14-.24-.06-.54.18-.68l79.17-45.83c.23-.14.54-.06.68.18.14.24.06.54-.18.68l-79.17,45.83c-.08.05-.16.07-.25.07Z"/>
          <path class="cls-15" d="m25.28,218.13c-.17,0-.34-.09-.43-.25-.14-.24-.06-.54.18-.68l79.17-45.83c.23-.14.54-.06.68.18.14.24.06.54-.18.68l-79.17,45.83c-.08.05-.16.07-.25.07Z"/>
        </g>
        <g>
          <path class="cls-15" d="m25.18,119.7c-.17,0-.34-.09-.43-.25-.14-.24-.06-.54.18-.68l36.56-21.11c.24-.14.54-.06.68.18.14.24.06.55-.18.68l-36.56,21.11c-.08.05-.17.07-.25.07Z"/>
          <path class="cls-15" d="m25.18,124.39c-.17,0-.34-.09-.43-.25-.14-.24-.06-.54.18-.68l36.56-21.11c.24-.14.54-.06.68.18.14.24.06.54-.18.68l-36.56,21.11c-.08.05-.17.07-.25.07Z"/>
          <path class="cls-15" d="m25.18,129.08c-.17,0-.34-.09-.43-.25-.14-.24-.06-.54.18-.68l36.56-21.11c.24-.14.54-.06.68.18.14.24.06.54-.18.68l-36.56,21.11c-.08.05-.17.07-.25.07Z"/>
          <path class="cls-15" d="m25.18,133.77c-.17,0-.34-.09-.43-.25-.14-.24-.06-.54.18-.68l36.56-21.11c.24-.14.54-.06.68.18.14.24.06.55-.18.68l-36.56,21.11c-.08.05-.17.07-.25.07Z"/>
          <path class="cls-15" d="m25.18,138.46c-.17,0-.34-.09-.43-.25-.14-.24-.06-.54.18-.68l36.56-21.11c.24-.14.54-.06.68.18.14.24.06.54-.18.68l-36.56,21.11c-.08.05-.17.07-.25.07Z"/>
          <path class="cls-15" d="m25.18,143.16c-.17,0-.34-.09-.43-.25-.14-.24-.06-.55.18-.68l36.56-21.11c.24-.14.54-.06.68.18.14.24.06.54-.18.68l-36.56,21.11c-.08.05-.17.07-.25.07Z"/>
          <path class="cls-15" d="m25.18,147.85c-.17,0-.34-.09-.43-.25-.14-.24-.06-.54.18-.68l36.56-21.11c.24-.14.54-.06.68.18.14.24.06.55-.18.68l-36.56,21.11c-.08.05-.17.07-.25.07Z"/>
        </g>
        <g>
          <path class="cls-15" d="m67.55,95.26c-.17,0-.34-.09-.43-.25-.14-.24-.06-.55.18-.68l36.56-21.11c.24-.14.54-.06.68.18.14.24.06.54-.18.68l-36.56,21.11c-.08.05-.16.07-.25.07Z"/>
          <path class="cls-15" d="m67.55,99.95c-.17,0-.34-.09-.43-.25-.14-.24-.06-.54.18-.68l36.56-21.11c.24-.14.54-.06.68.18.14.24.06.54-.18.68l-36.56,21.11c-.08.05-.16.07-.25.07Z"/>
          <path class="cls-15" d="m67.55,104.64c-.17,0-.34-.09-.43-.25-.14-.24-.06-.54.18-.68l36.56-21.11c.24-.14.54-.06.68.18.14.24.06.54-.18.68l-36.56,21.11c-.08.05-.16.07-.25.07Z"/>
          <path class="cls-15" d="m67.55,109.33c-.17,0-.34-.09-.43-.25-.14-.24-.06-.55.18-.68l36.56-21.11c.24-.14.54-.06.68.18.14.24.06.55-.18.68l-36.56,21.11c-.08.05-.16.07-.25.07Z"/>
          <path class="cls-15" d="m67.55,114.02c-.17,0-.34-.09-.43-.25-.14-.24-.06-.54.18-.68l36.56-21.11c.24-.14.54-.06.68.18.14.24.06.54-.18.68l-36.56,21.11c-.08.05-.16.07-.25.07Z"/>
          <path class="cls-15" d="m67.55,118.71c-.17,0-.34-.09-.43-.25-.14-.24-.06-.54.18-.68l36.56-21.11c.24-.14.54-.06.68.18.14.24.06.54-.18.68l-36.56,21.11c-.08.05-.16.07-.25.07Z"/>
          <path class="cls-15" d="m67.55,123.4c-.17,0-.34-.09-.43-.25-.14-.24-.06-.54.18-.68l36.56-21.11c.24-.14.54-.06.68.18.14.24.06.55-.18.68l-36.56,21.11c-.08.05-.16.07-.25.07Z"/>
        </g>
      </g>
    </g>
  </g>
</svg>